<svg width="38" height="36" viewBox="0 0 38 36" fill="none" xmlns="http://www.w3.org/2000/svg">
<path d="M0.786954 36.0002C1.22158 36.0002 1.57391 35.6478 1.57391 35.2132C1.57391 34.7786 1.22158 34.4263 0.786954 34.4263C0.352331 34.4263 0 34.7786 0 35.2132C0 35.6478 0.352331 36.0002 0.786954 36.0002Z" fill="#703EFF"/>
<path d="M0.786954 29.1989C1.22158 29.1989 1.57391 28.8466 1.57391 28.412C1.57391 27.9773 1.22158 27.625 0.786954 27.625C0.352331 27.625 0 27.9773 0 28.412C0 28.8466 0.352331 29.1989 0.786954 29.1989Z" fill="#703EFF"/>
<path d="M0.786954 22.3972C1.22158 22.3972 1.57391 22.0448 1.57391 21.6102C1.57391 21.1756 1.22158 20.8232 0.786954 20.8232C0.352331 20.8232 0 21.1756 0 21.6102C0 22.0448 0.352331 22.3972 0.786954 22.3972Z" fill="#703EFF"/>
<path d="M0.786954 15.6515C1.22158 15.6515 1.57391 15.2992 1.57391 14.8646C1.57391 14.43 1.22158 14.0776 0.786954 14.0776C0.352331 14.0776 0 14.43 0 14.8646C0 15.2992 0.352331 15.6515 0.786954 15.6515Z" fill="#703EFF"/>
<path d="M0.786954 8.85076C1.22158 8.85076 1.57391 8.49843 1.57391 8.06381C1.57391 7.62919 1.22158 7.27686 0.786954 7.27686C0.352331 7.27686 0 7.62919 0 8.06381C0 8.49843 0.352331 8.85076 0.786954 8.85076Z" fill="#703EFF"/>
<path d="M0.788358 2.10565C1.22298 2.10565 1.57531 1.75332 1.57531 1.31869C1.57531 0.88407 1.22298 0.531738 0.788358 0.531738C0.353735 0.531738 0.00140381 0.88407 0.00140381 1.31869C0.00140381 1.75332 0.353735 2.10565 0.788358 2.10565Z" fill="#703EFF"/>
<path d="M37.2129 35.9997C37.6475 35.9997 37.9998 35.6474 37.9998 35.2127C37.9998 34.7781 37.6475 34.4258 37.2129 34.4258C36.7782 34.4258 36.4259 34.7781 36.4259 35.2127C36.4259 35.6474 36.7782 35.9997 37.2129 35.9997Z" fill="#703EFF"/>
<path d="M37.2129 29.1984C37.6475 29.1984 37.9998 28.8461 37.9998 28.4115C37.9998 27.9768 37.6475 27.6245 37.2129 27.6245C36.7782 27.6245 36.4259 27.9768 36.4259 28.4115C36.4259 28.8461 36.7782 29.1984 37.2129 29.1984Z" fill="#703EFF"/>
<path d="M37.2129 22.3962C37.6475 22.3962 37.9998 22.0438 37.9998 21.6092C37.9998 21.1746 37.6475 20.8223 37.2129 20.8223C36.7782 20.8223 36.4259 21.1746 36.4259 21.6092C36.4259 22.0438 36.7782 22.3962 37.2129 22.3962Z" fill="#703EFF"/>
<path d="M37.2129 15.6511C37.6475 15.6511 37.9998 15.2987 37.9998 14.8641C37.9998 14.4295 37.6475 14.0771 37.2129 14.0771C36.7782 14.0771 36.4259 14.4295 36.4259 14.8641C36.4259 15.2987 36.7782 15.6511 37.2129 15.6511Z" fill="#703EFF"/>
<path d="M37.2129 8.84979C37.6475 8.84979 37.9998 8.49746 37.9998 8.06283C37.9998 7.62821 37.6475 7.27588 37.2129 7.27588C36.7782 7.27588 36.4259 7.62821 36.4259 8.06283C36.4259 8.49746 36.7782 8.84979 37.2129 8.84979Z" fill="#703EFF"/>
<path d="M37.2131 2.10467C37.6477 2.10467 38.0001 1.75234 38.0001 1.31772C38.0001 0.883093 37.6477 0.530762 37.2131 0.530762C36.7785 0.530762 36.4261 0.883093 36.4261 1.31772C36.4261 1.75234 36.7785 2.10467 37.2131 2.10467Z" fill="#703EFF"/>
<path d="M29.9616 35.9997C30.3963 35.9997 30.7486 35.6474 30.7486 35.2127C30.7486 34.7781 30.3963 34.4258 29.9616 34.4258C29.527 34.4258 29.1747 34.7781 29.1747 35.2127C29.1747 35.6474 29.527 35.9997 29.9616 35.9997Z" fill="#703EFF"/>
<path d="M29.9616 29.1984C30.3963 29.1984 30.7486 28.8461 30.7486 28.4115C30.7486 27.9768 30.3963 27.6245 29.9616 27.6245C29.527 27.6245 29.1747 27.9768 29.1747 28.4115C29.1747 28.8461 29.527 29.1984 29.9616 29.1984Z" fill="#703EFF"/>
<path d="M29.9616 22.3962C30.3963 22.3962 30.7486 22.0438 30.7486 21.6092C30.7486 21.1746 30.3963 20.8223 29.9616 20.8223C29.527 20.8223 29.1747 21.1746 29.1747 21.6092C29.1747 22.0438 29.527 22.3962 29.9616 22.3962Z" fill="#703EFF"/>
<path d="M29.9616 15.6511C30.3963 15.6511 30.7486 15.2987 30.7486 14.8641C30.7486 14.4295 30.3963 14.0771 29.9616 14.0771C29.527 14.0771 29.1747 14.4295 29.1747 14.8641C29.1747 15.2987 29.527 15.6511 29.9616 15.6511Z" fill="#703EFF"/>
<path d="M29.9616 8.84979C30.3963 8.84979 30.7486 8.49746 30.7486 8.06283C30.7486 7.62821 30.3963 7.27588 29.9616 7.27588C29.527 7.27588 29.1747 7.62821 29.1747 8.06283C29.1747 8.49746 29.527 8.84979 29.9616 8.84979Z" fill="#703EFF"/>
<path d="M29.9613 2.10467C30.396 2.10467 30.7483 1.75234 30.7483 1.31772C30.7483 0.883093 30.396 0.530762 29.9613 0.530762C29.5267 0.530762 29.1744 0.883093 29.1744 1.31772C29.1744 1.75234 29.5267 2.10467 29.9613 2.10467Z" fill="#703EFF"/>
<path d="M22.6542 35.9997C23.0888 35.9997 23.4412 35.6474 23.4412 35.2127C23.4412 34.7781 23.0888 34.4258 22.6542 34.4258C22.2196 34.4258 21.8672 34.7781 21.8672 35.2127C21.8672 35.6474 22.2196 35.9997 22.6542 35.9997Z" fill="#703EFF"/>
<path d="M22.6542 29.1984C23.0888 29.1984 23.4412 28.8461 23.4412 28.4115C23.4412 27.9768 23.0888 27.6245 22.6542 27.6245C22.2196 27.6245 21.8672 27.9768 21.8672 28.4115C21.8672 28.8461 22.2196 29.1984 22.6542 29.1984Z" fill="#703EFF"/>
<path d="M22.6542 22.3962C23.0888 22.3962 23.4412 22.0438 23.4412 21.6092C23.4412 21.1746 23.0888 20.8223 22.6542 20.8223C22.2196 20.8223 21.8672 21.1746 21.8672 21.6092C21.8672 22.0438 22.2196 22.3962 22.6542 22.3962Z" fill="#703EFF"/>
<path d="M22.6542 15.6511C23.0888 15.6511 23.4412 15.2987 23.4412 14.8641C23.4412 14.4295 23.0888 14.0771 22.6542 14.0771C22.2196 14.0771 21.8672 14.4295 21.8672 14.8641C21.8672 15.2987 22.2196 15.6511 22.6542 15.6511Z" fill="#703EFF"/>
<path d="M22.6542 8.84979C23.0888 8.84979 23.4412 8.49746 23.4412 8.06283C23.4412 7.62821 23.0888 7.27588 22.6542 7.27588C22.2196 7.27588 21.8672 7.62821 21.8672 8.06283C21.8672 8.49746 22.2196 8.84979 22.6542 8.84979Z" fill="#703EFF"/>
<path d="M22.6539 2.10467C23.0885 2.10467 23.4409 1.75234 23.4409 1.31772C23.4409 0.883093 23.0885 0.530762 22.6539 0.530762C22.2193 0.530762 21.8669 0.883093 21.8669 1.31772C21.8669 1.75234 22.2193 2.10467 22.6539 2.10467Z" fill="#703EFF"/>
<path d="M15.3468 35.9997C15.7815 35.9997 16.1338 35.6474 16.1338 35.2127C16.1338 34.7781 15.7815 34.4258 15.3468 34.4258C14.9122 34.4258 14.5599 34.7781 14.5599 35.2127C14.5599 35.6474 14.9122 35.9997 15.3468 35.9997Z" fill="#703EFF"/>
<path d="M15.3468 29.1984C15.7815 29.1984 16.1338 28.8461 16.1338 28.4115C16.1338 27.9768 15.7815 27.6245 15.3468 27.6245C14.9122 27.6245 14.5599 27.9768 14.5599 28.4115C14.5599 28.8461 14.9122 29.1984 15.3468 29.1984Z" fill="#703EFF"/>
<path d="M15.3468 22.3962C15.7815 22.3962 16.1338 22.0438 16.1338 21.6092C16.1338 21.1746 15.7815 20.8223 15.3468 20.8223C14.9122 20.8223 14.5599 21.1746 14.5599 21.6092C14.5599 22.0438 14.9122 22.3962 15.3468 22.3962Z" fill="#703EFF"/>
<path d="M15.3468 15.6511C15.7815 15.6511 16.1338 15.2987 16.1338 14.8641C16.1338 14.4295 15.7815 14.0771 15.3468 14.0771C14.9122 14.0771 14.5599 14.4295 14.5599 14.8641C14.5599 15.2987 14.9122 15.6511 15.3468 15.6511Z" fill="#703EFF"/>
<path d="M15.3468 8.84979C15.7815 8.84979 16.1338 8.49746 16.1338 8.06283C16.1338 7.62821 15.7815 7.27588 15.3468 7.27588C14.9122 7.27588 14.5599 7.62821 14.5599 8.06283C14.5599 8.49746 14.9122 8.84979 15.3468 8.84979Z" fill="#703EFF"/>
<path d="M15.3465 2.10467C15.7811 2.10467 16.1334 1.75234 16.1334 1.31772C16.1334 0.883093 15.7811 0.530762 15.3465 0.530762C14.9118 0.530762 14.5595 0.883093 14.5595 1.31772C14.5595 1.75234 14.9118 2.10467 15.3465 2.10467Z" fill="#703EFF"/>
<path d="M8.03946 35.9997C8.47408 35.9997 8.82641 35.6474 8.82641 35.2127C8.82641 34.7781 8.47408 34.4258 8.03946 34.4258C7.60483 34.4258 7.2525 34.7781 7.2525 35.2127C7.2525 35.6474 7.60483 35.9997 8.03946 35.9997Z" fill="#703EFF"/>
<path d="M8.03946 29.1984C8.47408 29.1984 8.82641 28.8461 8.82641 28.4115C8.82641 27.9768 8.47408 27.6245 8.03946 27.6245C7.60483 27.6245 7.2525 27.9768 7.2525 28.4115C7.2525 28.8461 7.60483 29.1984 8.03946 29.1984Z" fill="#703EFF"/>
<path d="M8.03946 22.3962C8.47408 22.3962 8.82641 22.0438 8.82641 21.6092C8.82641 21.1746 8.47408 20.8223 8.03946 20.8223C7.60483 20.8223 7.2525 21.1746 7.2525 21.6092C7.2525 22.0438 7.60483 22.3962 8.03946 22.3962Z" fill="#703EFF"/>
<path d="M8.03946 15.6511C8.47408 15.6511 8.82641 15.2987 8.82641 14.8641C8.82641 14.4295 8.47408 14.0771 8.03946 14.0771C7.60483 14.0771 7.2525 14.4295 7.2525 14.8641C7.2525 15.2987 7.60483 15.6511 8.03946 15.6511Z" fill="#703EFF"/>
<path d="M8.03946 8.84979C8.47408 8.84979 8.82641 8.49746 8.82641 8.06283C8.82641 7.62821 8.47408 7.27588 8.03946 7.27588C7.60483 7.27588 7.2525 7.62821 7.2525 8.06283C7.2525 8.49746 7.60483 8.84979 8.03946 8.84979Z" fill="#703EFF"/>
<path d="M8.03903 2.10467C8.47365 2.10467 8.82598 1.75234 8.82598 1.31772C8.82598 0.883093 8.47365 0.530762 8.03903 0.530762C7.60441 0.530762 7.25208 0.883093 7.25208 1.31772C7.25208 1.75234 7.60441 2.10467 8.03903 2.10467Z" fill="#703EFF"/>
</svg>
