<svg width="40" height="40" viewBox="0 0 40 40" fill="none" xmlns="http://www.w3.org/2000/svg">
<path d="M35 16.6668L35 15.0002C35 13.4502 35 12.6752 34.8296 12.0394C34.3673 10.3139 33.0196 8.9662 31.2941 8.50387C30.6583 8.3335 29.8833 8.3335 28.3333 8.3335" stroke="#703EFF" stroke-linejoin="round"/>
<path d="M5 16.6668L5 15.0002C5 13.4502 5 12.6752 5.17037 12.0394C5.63271 10.3139 6.98044 8.9662 8.7059 8.50387C9.34174 8.3335 10.1167 8.3335 11.6667 8.3335" stroke="#703EFF" stroke-linejoin="round"/>
<path d="M35 23.3335L35 25.0002C35 26.5501 35 27.3251 34.8296 27.9609C34.3673 29.6864 33.0196 31.0341 31.2941 31.4965C30.6583 31.6668 29.8833 31.6668 28.3333 31.6668" stroke="#703EFF" stroke-linejoin="round"/>
<path d="M5 23.3335L5 25.0002C5 26.5501 5 27.3251 5.17037 27.9609C5.63271 29.6864 6.98044 31.0341 8.7059 31.4965C9.34174 31.6668 10.1167 31.6668 11.6667 31.6668" stroke="#703EFF" stroke-linejoin="round"/>
<path d="M20 25L20 15" stroke="#703EFF" stroke-linecap="round" stroke-linejoin="round"/>
<path d="M13.3333 23.3332L13.3333 16.6665" stroke="#703EFF" stroke-linecap="round" stroke-linejoin="round"/>
<path d="M26.6667 23.3332L26.6667 16.6665" stroke="#703EFF" stroke-linecap="round" stroke-linejoin="round"/>
</svg>
