<svg width="334" height="356" viewBox="0 0 334 356" fill="none" xmlns="http://www.w3.org/2000/svg">
  <g filter="url(#filter0_d_388_563)">
    <path d="M141.632 4.83871C150.292 -1.09142 161.708 -1.09142 170.368 4.83871C176.548 9.07056 184.281 10.3625 191.5 8.36883C201.613 5.57636 212.412 9.29419 218.674 17.7114C223.146 23.7212 230.044 27.4629 237.521 27.9252C247.992 28.5726 256.998 35.6018 260.191 45.595C262.471 52.7327 267.783 58.5181 274.706 61.3868C284.401 65.4047 290.638 74.9778 290.418 85.4702C290.261 92.9648 293.409 100.162 299.026 105.127C306.894 112.081 309.692 123.156 306.079 133.017C303.499 140.058 304.145 147.885 307.848 154.406C313.035 163.54 312.094 174.923 305.475 183.081C300.751 188.903 298.829 196.518 300.216 203.886C302.158 214.203 297.579 224.67 288.675 230.232C282.319 234.203 278.03 240.785 276.954 248.202C275.447 258.585 267.72 267.002 257.498 269.367C250.199 271.055 244.008 275.885 240.586 282.549C235.793 291.881 225.754 297.33 215.32 296.242C207.87 295.466 200.453 298.017 195.054 303.209C187.49 310.482 176.229 312.367 166.713 307.946C159.92 304.789 152.08 304.789 145.287 307.946C135.771 312.367 124.51 310.482 116.946 303.209C111.547 298.017 104.13 295.466 96.6803 296.242C86.2463 297.33 76.2066 291.881 71.4142 282.549C67.9918 275.885 61.8014 271.055 54.5024 269.367C44.28 267.002 36.553 258.585 35.046 248.202C33.9696 240.785 29.6811 234.203 23.3247 230.232C14.4213 224.67 9.8419 214.203 11.7842 203.886C13.1714 196.518 11.2492 188.903 6.52505 183.081C-0.0939512 174.923 -1.03495 163.54 4.15197 154.406C7.85459 147.885 8.5007 140.058 5.92076 133.017C2.30778 123.156 5.10553 112.081 12.9742 105.127C18.5911 100.162 21.7391 92.9648 21.5818 85.4702C21.3616 74.9778 27.5993 65.4047 37.2944 61.3868C44.2166 58.5181 49.5289 52.7327 51.8094 45.595C55.0022 35.6019 64.0085 28.5726 74.4793 27.9252C81.9558 27.4629 88.8544 23.7212 93.3258 17.7114C99.5883 9.29418 110.387 5.57636 120.5 8.36883C127.719 10.3625 135.452 9.07056 141.632 4.83871Z" fill="white">
      <animate attributeName="d" values="
        M141.632 4.83871C150.292 -1.09142 161.708 -1.09142 170.368 4.83871C176.548 9.07056 184.281 10.3625 191.5 8.36883C201.613 5.57636 212.412 9.29419 218.674 17.7114C223.146 23.7212 230.044 27.4629 237.521 27.9252C247.992 28.5726 256.998 35.6018 260.191 45.595C262.471 52.7327 267.783 58.5181 274.706 61.3868C284.401 65.4047 290.638 74.9778 290.418 85.4702C290.261 92.9648 293.409 100.162 299.026 105.127C306.894 112.081 309.692 123.156 306.079 133.017C303.499 140.058 304.145 147.885 307.848 154.406C313.035 163.54 312.094 174.923 305.475 183.081C300.751 188.903 298.829 196.518 300.216 203.886C302.158 214.203 297.579 224.67 288.675 230.232C282.319 234.203 278.03 240.785 276.954 248.202C275.447 258.585 267.72 267.002 257.498 269.367C250.199 271.055 244.008 275.885 240.586 282.549C235.793 291.881 225.754 297.33 215.32 296.242C207.87 295.466 200.453 298.017 195.054 303.209C187.49 310.482 176.229 312.367 166.713 307.946C159.92 304.789 152.08 304.789 145.287 307.946C135.771 312.367 124.51 310.482 116.946 303.209C111.547 298.017 104.13 295.466 96.6803 296.242C86.2463 297.33 76.2066 291.881 71.4142 282.549C67.9918 275.885 61.8014 271.055 54.5024 269.367C44.28 267.002 36.553 258.585 35.046 248.202C33.9696 240.785 29.6811 234.203 23.3247 230.232C14.4213 224.67 9.8419 214.203 11.7842 203.886C13.1714 196.518 11.2492 188.903 6.52505 183.081C-0.0939512 174.923 -1.03495 163.54 4.15197 154.406C7.85459 147.885 8.5007 140.058 5.92076 133.017C2.30778 123.156 5.10553 112.081 12.9742 105.127C18.5911 100.162 21.7391 92.9648 21.5818 85.4702C21.3616 74.9778 27.5993 65.4047 37.2944 61.3868C44.2166 58.5181 49.5289 52.7327 51.8094 45.595C55.0022 35.6019 64.0085 28.5726 74.4793 27.9252C81.9558 27.4629 88.8544 23.7212 93.3258 17.7114C99.5883 9.29418 110.387 5.57636 120.5 8.36883C127.719 10.3625 135.452 9.07056 141.632 4.83871Z;
        M151.632 14.83871C160.292 9.09142 171.708 9.09142 180.368 14.83871C186.548 19.07056 194.281 20.3625 201.5 18.36883C211.613 15.57636 222.412 19.29419 228.674 27.7114C233.146 33.7212 240.044 37.4629 247.521 37.9252C257.992 38.5726 266.998 45.6018 270.191 55.595C272.471 62.7327 277.783 68.5181 284.706 71.3868C294.401 75.4047 300.638 84.9778 300.418 95.4702C300.261 102.964 303.409 110.162 309.026 115.127C316.894 122.081 319.692 133.156 316.079 143.017C313.499 150.058 314.145 157.885 317.848 164.406C323.035 173.54 322.094 184.923 315.475 193.081C310.751 198.903 308.829 206.518 310.216 213.886C312.158 224.203 307.579 234.67 298.675 240.232C292.319 244.203 288.03 250.785 286.954 258.202C285.447 268.585 277.72 277.002 267.498 279.367C260.199 281.055 254.008 285.885 250.586 292.549C245.793 301.881 235.754 307.33 225.32 306.242C217.87 305.466 210.453 308.017 205.054 313.209C197.49 320.482 186.229 322.367 176.713 317.946C169.92 314.789 162.08 314.789 155.287 317.946C145.771 322.367 134.51 320.482 126.946 313.209C121.547 308.017 114.13 305.466 106.68 306.242C96.2463 307.33 86.2066 301.881 81.4142 292.549C77.9918 285.885 71.8014 281.055 64.5024 279.367C54.28 277.002 46.553 268.585 45.046 258.202C43.9696 250.785 39.6811 244.203 33.3247 240.232C24.4213 234.67 19.8419 224.203 21.7842 213.886C23.1714 206.518 21.2492 198.903 16.525 193.081C9.90605 184.923 8.96505 173.54 14.152 164.406C17.8546 157.885 18.5007 150.058 15.9208 143.017C12.3078 133.156 15.1055 122.081 22.9742 115.127C28.5911 110.162 31.7391 102.964 31.5818 95.4702C31.3616 84.9778 37.5993 75.4047 47.2944 71.3868C54.2166 68.5181 59.5289 62.7327 61.8094 55.595C65.0022 45.6019 74.0085 38.5726 84.4793 37.9252C91.9558 37.4629 98.8544 33.7212 103.326 27.7114C109.588 19.29418 120.387 15.57636 130.5 18.36883C137.719 20.3625 145.452 19.07056 151.632 14.83871Z" 
        dur="2s" 
        repeatCount="indefinite" />
    </path>
    <path d="M145.587 10.6144C151.863 6.31669 160.137 6.31669 166.413 10.6144C174.295 16.0112 184.156 17.6589 193.364 15.1163C200.688 13.0939 208.517 15.7864 213.058 21.8898C218.758 29.5509 227.552 34.3222 237.089 34.9118C244.672 35.3806 251.206 40.4753 253.523 47.7254C256.429 56.8206 263.197 64.1947 272.026 67.8535C279.05 70.7648 283.58 77.7084 283.42 85.3234C283.219 94.8712 287.228 104.042 294.39 110.372C300.097 115.415 302.129 123.452 299.507 130.608C296.219 139.579 297.042 149.551 301.761 157.862C305.525 164.491 304.842 172.752 300.039 178.67C294.017 186.092 291.569 195.795 293.337 205.182C294.746 212.669 291.421 220.264 284.967 224.295C276.861 229.359 271.398 237.747 270.027 247.196C268.933 254.731 263.324 260.834 255.92 262.547C246.61 264.701 238.721 270.858 234.359 279.352C230.883 286.12 223.601 290.068 216.045 289.28C206.543 288.29 197.086 291.544 190.202 298.163C184.719 303.436 176.556 304.8 169.662 301.597C160.999 297.572 151.001 297.572 142.338 301.597C135.444 304.8 127.281 303.436 121.798 298.163C114.914 291.544 105.457 288.29 95.9547 289.28C88.3989 290.068 81.1171 286.12 77.6412 279.352C73.2793 270.858 65.3901 264.701 56.0801 262.547C48.6757 260.834 43.067 254.731 41.9735 247.196C40.6021 237.747 35.1393 229.359 27.0333 224.295C20.5795 220.264 17.2536 212.669 18.6633 205.182C20.4306 195.795 17.983 186.092 11.9607 178.67C7.15838 172.752 6.4749 164.491 10.2391 157.862C14.958 149.551 15.7806 139.579 12.4934 130.608C9.87118 123.452 11.9033 115.415 17.6098 110.372C24.7715 104.042 28.7806 94.8712 28.5802 85.3234C28.4204 77.7084 32.9496 70.7648 39.9744 67.8535C48.8031 64.1947 55.5714 56.8206 58.4773 47.7254C60.7937 40.4753 67.3285 35.3806 74.9113 34.9118C84.4479 34.3222 93.242 29.5509 98.9419 21.8898C103.483 15.7864 111.312 13.0939 118.636 15.1163C127.844 17.6589 137.705 16.0112 145.587 10.6144Z" stroke="#26103D" stroke-width="14"/>
  </g>
  <defs>
    <filter id="filter0_d_388_563" x="0.824219" y="0.391602" width="332.352" height="354.92" filterUnits="userSpaceOnUse" color-interpolation-filters="sRGB">
      <feFlood flood-opacity="0" result="BackgroundImageFix"/>
      <feColorMatrix in="SourceAlpha" type="matrix" values="0 0 0 0 0 0 0 0 0 0 0 0 0 0 0 0 0 0 127 0" result="hardAlpha"/>
      <feOffset dx="22" dy="45"/>
      <feComposite in2="hardAlpha" operator="out"/>
      <feColorMatrix type="matrix" values="0 0 0 0 0.14902 0 0 0 0 0.0627451 0 0 0 0 0.239216 0 0 0 1 0"/>
      <feBlend mode="normal" in2="BackgroundImageFix" result="effect1_dropShadow_388_563"/>
      <feBlend mode="normal" in="SourceGraphic" in2="effect1_dropShadow_388_563" result="shape"/>
    </filter>
  </defs>
</svg>
