<svg width="20" height="20" viewBox="0 0 20 20" fill="none" xmlns="http://www.w3.org/2000/svg">
<mask id="path-1-outside-1_513_430" maskUnits="userSpaceOnUse" x="1.5" y="1.5" width="17" height="10" fill="black">
<rect fill="white" x="1.5" y="1.5" width="17" height="10"/>
<path fill-rule="evenodd" clip-rule="evenodd" d="M5 10.8333H10H15C16.3807 10.8333 17.5 9.71405 17.5 8.33333C17.5 6.95262 16.3807 5.83333 15 5.83333C14.8711 5.83333 14.8066 5.83333 14.7718 5.8309C14.3588 5.80204 14.1553 5.67031 13.9599 5.3054C13.9434 5.27463 13.8967 5.17054 13.8033 4.96234C13.1519 3.5109 11.694 2.5 10 2.5C8.30601 2.5 6.84814 3.5109 6.19671 4.96234C6.10327 5.17054 6.05655 5.27463 6.04008 5.3054C5.84467 5.67031 5.64116 5.80204 5.22823 5.8309C5.19342 5.83333 5.12894 5.83333 5 5.83333C3.61929 5.83333 2.5 6.95262 2.5 8.33333C2.5 9.71405 3.61929 10.8333 5 10.8333Z"/>
</mask>
<path fill-rule="evenodd" clip-rule="evenodd" d="M5 10.8333H10H15C16.3807 10.8333 17.5 9.71405 17.5 8.33333C17.5 6.95262 16.3807 5.83333 15 5.83333C14.8711 5.83333 14.8066 5.83333 14.7718 5.8309C14.3588 5.80204 14.1553 5.67031 13.9599 5.3054C13.9434 5.27463 13.8967 5.17054 13.8033 4.96234C13.1519 3.5109 11.694 2.5 10 2.5C8.30601 2.5 6.84814 3.5109 6.19671 4.96234C6.10327 5.17054 6.05655 5.27463 6.04008 5.3054C5.84467 5.67031 5.64116 5.80204 5.22823 5.8309C5.19342 5.83333 5.12894 5.83333 5 5.83333C3.61929 5.83333 2.5 6.95262 2.5 8.33333C2.5 9.71405 3.61929 10.8333 5 10.8333Z" fill="#7E869E" fill-opacity="0.25"/>
<path d="M6.19671 4.96234L5.64932 4.71666L6.19671 4.96234ZM6.04008 5.3054L6.56902 5.58864L6.04008 5.3054ZM5.22823 5.8309L5.27006 6.42944L5.22823 5.8309ZM14.7718 5.8309L14.7299 6.42944L14.7718 5.8309ZM13.8033 4.96234L14.3507 4.71666L13.8033 4.96234ZM13.9599 5.3054L13.431 5.58864L13.9599 5.3054ZM10 10.2333H5V11.4333H10V10.2333ZM15 10.2333H10V11.4333H15V10.2333ZM16.9 8.33333C16.9 9.38267 16.0493 10.2333 15 10.2333V11.4333C16.7121 11.4333 18.1 10.0454 18.1 8.33333H16.9ZM15 6.43333C16.0493 6.43333 16.9 7.28399 16.9 8.33333H18.1C18.1 6.62125 16.7121 5.23333 15 5.23333V6.43333ZM14.3507 4.71666C13.606 3.05751 11.9388 1.9 10 1.9V3.1C11.4491 3.1 12.6977 3.96428 13.2559 5.20802L14.3507 4.71666ZM10 1.9C8.06116 1.9 6.39396 3.05751 5.64932 4.71666L6.74411 5.20802C7.30231 3.96428 8.55087 3.1 10 3.1V1.9ZM5 5.23333C3.28792 5.23333 1.9 6.62125 1.9 8.33333H3.1C3.1 7.28399 3.95066 6.43333 5 6.43333V5.23333ZM1.9 8.33333C1.9 10.0454 3.28792 11.4333 5 11.4333V10.2333C3.95066 10.2333 3.1 9.38267 3.1 8.33333H1.9ZM5.64932 4.71666C5.60231 4.8214 5.56801 4.89782 5.54336 4.95202C5.53103 4.97913 5.52197 4.99881 5.51544 5.01268C5.50761 5.02933 5.50729 5.02935 5.51114 5.02216L6.56902 5.58864C6.59854 5.53351 6.65897 5.39771 6.74411 5.20802L5.64932 4.71666ZM5 6.43333C5.11353 6.43333 5.20818 6.43376 5.27006 6.42944L5.1864 5.23236C5.18927 5.23216 5.18091 5.23275 5.14443 5.23305C5.11094 5.23333 5.06556 5.23333 5 5.23333V6.43333ZM5.51114 5.02216C5.4385 5.15781 5.39839 5.18485 5.38969 5.19048C5.38099 5.19611 5.3399 5.22163 5.1864 5.23236L5.27006 6.42944C5.52949 6.41131 5.79662 6.35654 6.04176 6.19786C6.2869 6.03918 6.44625 5.8179 6.56902 5.58864L5.51114 5.02216ZM15 5.23333C14.9344 5.23333 14.8891 5.23333 14.8556 5.23305C14.8191 5.23275 14.8107 5.23216 14.8136 5.23236L14.7299 6.42944C14.7918 6.43376 14.8865 6.43333 15 6.43333V5.23333ZM13.2559 5.20802C13.341 5.39771 13.4015 5.53351 13.431 5.58864L14.4889 5.02216C14.4927 5.02935 14.4924 5.02933 14.4846 5.01268C14.478 4.99881 14.469 4.97913 14.4566 4.95202C14.432 4.89782 14.3977 4.8214 14.3507 4.71666L13.2559 5.20802ZM14.8136 5.23236C14.6601 5.22163 14.619 5.19611 14.6103 5.19048C14.6016 5.18485 14.5615 5.15781 14.4889 5.02216L13.431 5.58864C13.5538 5.8179 13.7131 6.03918 13.9582 6.19786C14.2034 6.35654 14.4705 6.41131 14.7299 6.42944L14.8136 5.23236Z" fill="#7E869E" fill-opacity="0.25" mask="url(#path-1-outside-1_513_430)"/>
<path fill-rule="evenodd" clip-rule="evenodd" d="M10 1.90039C8.06118 1.90039 6.39398 3.05791 5.64934 4.71705C5.60233 4.82179 5.56804 4.89821 5.54339 4.95241C5.53106 4.97953 5.52199 4.9992 5.51546 5.01307L5.50918 5.02624C5.4378 5.15869 5.39834 5.18529 5.38972 5.19087C5.38102 5.1965 5.33993 5.22202 5.18643 5.23275L5.18695 5.23271C5.18694 5.23268 5.17665 5.23317 5.14445 5.23344C5.11096 5.23372 5.06559 5.23372 5.00002 5.23372C3.28794 5.23372 1.90002 6.62164 1.90002 8.33372C1.90002 10.0145 3.23759 11.3828 4.90632 11.4323L6.10493 10.2337H5.00002C3.95068 10.2337 3.10002 9.38306 3.10002 8.33372C3.10002 7.28438 3.95068 6.43372 5.00002 6.43372L5.02836 6.43373C5.1293 6.43376 5.21343 6.43379 5.27008 6.42983C5.52951 6.4117 5.79664 6.35693 6.04178 6.19825C6.28692 6.03957 6.44627 5.81829 6.56904 5.58903C6.59589 5.5389 6.6483 5.42206 6.7216 5.25864L6.72162 5.2586L6.74414 5.20841C7.30234 3.96467 8.5509 3.10039 10 3.10039C11.4492 3.10039 12.6977 3.96467 13.2559 5.20841L13.2785 5.25869L13.2785 5.25874C13.3518 5.42211 13.4042 5.53891 13.431 5.58903C13.5538 5.81829 13.7131 6.03957 13.9583 6.19825C14.2034 6.35693 14.4705 6.4117 14.73 6.42983C14.7866 6.43379 14.8707 6.43376 14.9717 6.43373L15 6.43372C16.0494 6.43372 16.9 7.28438 16.9 8.33372C16.9 9.38306 16.0494 10.2337 15 10.2337H13.8951L15.0937 11.4323C16.7625 11.3828 18.1 10.0145 18.1 8.33372C18.1 6.62164 16.7121 5.23372 15 5.23372C14.9345 5.23372 14.8891 5.23372 14.8556 5.23344C14.8284 5.23321 14.8168 5.23283 14.8139 5.23273C14.8133 5.23272 14.8131 5.23271 14.8131 5.23271L14.8136 5.23275C14.6601 5.22202 14.619 5.1965 14.6103 5.19087C14.6017 5.18529 14.5623 5.1587 14.4909 5.02625L14.4846 5.01307C14.4781 4.9992 14.469 4.97952 14.4567 4.95241C14.432 4.89821 14.3977 4.82179 14.3507 4.71705C13.6061 3.0579 11.9389 1.90039 10 1.90039Z" fill="#222222"/>
<path d="M9.99996 10L9.5757 9.57574L9.99996 9.15147L10.4242 9.57574L9.99996 10ZM10.6 17.5C10.6 17.8314 10.3313 18.1 9.99996 18.1C9.66859 18.1 9.39996 17.8314 9.39996 17.5L10.6 17.5ZM6.24236 12.9091L9.5757 9.57574L10.4242 10.4243L7.09089 13.7576L6.24236 12.9091ZM10.4242 9.57574L13.7576 12.9091L12.909 13.7576L9.5757 10.4243L10.4242 9.57574ZM10.6 10L10.6 17.5L9.39996 17.5L9.39996 10L10.6 10Z" fill="#222222"/>
</svg>
