<svg width="106" height="105" viewBox="0 0 106 105" fill="none" xmlns="http://www.w3.org/2000/svg">
<g clip-path="url(#clip0_523_1096)">
<path d="M105.569 46.7843L105.694 46.6601C105.694 46.5722 105.673 46.4873 105.661 46.3994L105.422 46.6389L105.569 46.7843Z" fill="white"/>
<path d="M105.422 49.5127L105.966 50.0522C105.966 49.9522 105.966 49.8491 105.966 49.7491L105.581 49.3672L105.422 49.5127Z" fill="white"/>
<path d="M105.568 51.8285L106 51.4011V51.1162L105.431 51.683L105.568 51.8285Z" fill="white"/>
<path d="M105.422 56.724L105.569 56.8725L105.85 56.5936C105.85 56.4876 105.869 56.3815 105.875 56.2754L105.422 56.724Z" fill="white"/>
<path d="M105.96 55.0936C105.96 54.9966 105.96 54.8996 105.96 54.7905L105.559 54.3965L105.413 54.542L105.96 55.0936Z" fill="white"/>
<path d="M105.422 59.6067L105.517 59.7037C105.517 59.6309 105.535 59.5552 105.547 59.4824L105.422 59.6067Z" fill="white"/>
<path d="M100.33 29.3399L100.872 29.8764C100.78 29.6824 100.679 29.4915 100.584 29.2975L100.477 29.1914L100.33 29.3399Z" fill="white"/>
<path d="M100.477 31.6524L101.309 30.831L101.217 30.6279L100.33 31.5069L100.477 31.6524Z" fill="white"/>
<path d="M102.778 34.3475L102.668 34.2354L101.572 35.3205L100.477 34.2354L100.33 34.3839L101.425 35.466L100.33 36.5512L100.477 36.6967L101.572 35.6146L102.668 36.6967L102.815 36.5512L101.719 35.466L102.799 34.399C102.793 34.3809 102.784 34.3627 102.778 34.3475Z" fill="white"/>
<path d="M102.668 39.2793L101.572 40.3645L100.477 39.2793L100.33 39.4248L101.425 40.51L100.33 41.5952L100.477 41.7407L101.572 40.6555L102.668 41.7407L102.815 41.5952L101.719 40.51L102.815 39.4248L102.668 39.2793Z" fill="white"/>
<path d="M102.668 44.3232L101.572 45.4054L100.477 44.3232L100.33 44.4687L101.425 45.5539L100.33 46.6361L100.477 46.7846L101.572 45.6994L102.668 46.7846L102.815 46.6361L101.719 45.5539L102.815 44.4687L102.668 44.3232Z" fill="white"/>
<path d="M102.668 49.3672L101.572 50.4493L100.477 49.3672L100.33 49.5127L101.425 50.5979L100.33 51.68L100.477 51.8286L101.572 50.7434L102.668 51.8286L102.815 51.68L101.719 50.5979L102.815 49.5127L102.668 49.3672Z" fill="white"/>
<path d="M102.668 54.4111L101.572 55.4933L100.477 54.4111L100.33 54.5566L101.425 55.6418L100.33 56.724L100.477 56.8725L101.572 55.7873L102.668 56.8725L102.815 56.724L101.719 55.6418L102.815 54.5566L102.668 54.4111Z" fill="white"/>
<path d="M102.668 59.4521L101.572 60.5373L100.477 59.4521L100.33 59.6007L101.425 60.6828L100.33 61.768L100.477 61.9135L101.572 60.8314L102.668 61.9135L102.815 61.768L101.719 60.6828L102.815 59.6007L102.668 59.4521Z" fill="white"/>
<path d="M102.668 64.4961L101.572 65.5813L100.477 64.4961L100.33 64.6446L101.425 65.7268L100.33 66.812L100.477 66.9575L101.572 65.8753L102.668 66.9575L102.815 66.812L101.719 65.7268L102.815 64.6446L102.668 64.4961Z" fill="white"/>
<path d="M102.815 69.6885L102.668 69.543L101.572 70.6251L100.477 69.543L100.33 69.6885L101.425 70.7737L100.33 71.8558L100.477 72.0044L101.572 70.9192L102.356 71.6952L102.438 71.483L101.719 70.7737L102.815 69.6885Z" fill="white"/>
<path d="M100.477 74.584L100.33 74.7325L100.82 75.2174C100.853 75.1508 100.881 75.081 100.911 75.0144L100.477 74.584Z" fill="white"/>
<path d="M95.3854 21.5676L95.6638 21.2918C95.621 21.2372 95.5812 21.1766 95.5384 21.1221L95.2324 21.4252L95.3854 21.5676Z" fill="white"/>
<path d="M97.5764 24.1475L96.481 25.2327L95.3887 24.1475L95.2388 24.293L96.3342 25.3782L95.2388 26.4633L95.3887 26.6088L96.481 25.5237L97.5764 26.6088L97.7233 26.4633L96.631 25.3782L97.7233 24.293L97.5764 24.1475Z" fill="white"/>
<path d="M97.5764 29.1914L96.481 30.2766L95.3887 29.1914L95.2388 29.3369L96.3342 30.4221L95.2388 31.5073L95.3887 31.6528L96.481 30.5676L97.5764 31.6528L97.7233 31.5073L96.631 30.4221L97.7233 29.3369L97.5764 29.1914Z" fill="white"/>
<path d="M97.5764 34.2354L96.481 35.3205L95.3887 34.2354L95.2388 34.3809L96.3342 35.466L95.2388 36.5512L95.3887 36.6967L96.481 35.6115L97.5764 36.6967L97.7233 36.5512L96.631 35.466L97.7233 34.3809L97.5764 34.2354Z" fill="white"/>
<path d="M97.5764 39.2793L96.481 40.3645L95.3887 39.2793L95.2388 39.4248L96.3342 40.51L95.2388 41.5952L95.3887 41.7407L96.481 40.6555L97.5764 41.7407L97.7233 41.5952L96.631 40.51L97.7233 39.4248L97.5764 39.2793Z" fill="white"/>
<path d="M97.5764 44.3232L96.481 45.4054L95.3887 44.3232L95.2388 44.4687L96.3342 45.5539L95.2388 46.6361L95.3887 46.7846L96.481 45.6994L97.5764 46.7846L97.7233 46.6361L96.631 45.5539L97.7233 44.4687L97.5764 44.3232Z" fill="white"/>
<path d="M97.5764 49.3672L96.481 50.4493L95.3887 49.3672L95.2388 49.5127L96.3342 50.5979L95.2388 51.68L95.3887 51.8286L96.481 50.7434L97.5764 51.8286L97.7233 51.68L96.631 50.5979L97.7233 49.5127L97.5764 49.3672Z" fill="white"/>
<path d="M97.5764 54.4111L96.481 55.4933L95.3887 54.4111L95.2388 54.5566L96.3342 55.6418L95.2388 56.724L95.3887 56.8725L96.481 55.7873L97.5764 56.8725L97.7233 56.724L96.631 55.6418L97.7233 54.5566L97.5764 54.4111Z" fill="white"/>
<path d="M97.5764 59.4521L96.481 60.5373L95.3887 59.4521L95.2388 59.6007L96.3342 60.6828L95.2388 61.768L95.3887 61.9135L96.481 60.8314L97.5764 61.9135L97.7233 61.768L96.631 60.6828L97.7233 59.6007L97.5764 59.4521Z" fill="white"/>
<path d="M97.5764 64.4961L96.481 65.5813L95.3887 64.4961L95.2388 64.6446L96.3342 65.7268L95.2388 66.812L95.3887 66.9575L96.481 65.8753L97.5764 66.9575L97.7233 66.812L96.631 65.7268L97.7233 64.6446L97.5764 64.4961Z" fill="white"/>
<path d="M97.5764 69.54L96.481 70.6252L95.3887 69.54L95.2388 69.6886L96.3342 70.7707L95.2388 71.8559L95.3887 72.0014L96.481 70.9193L97.5764 72.0014L97.7233 71.8559L96.631 70.7707L97.7233 69.6886L97.5764 69.54Z" fill="white"/>
<path d="M97.5764 74.584L96.481 75.6692L95.3887 74.584L95.2388 74.7295L96.3342 75.8147L95.2388 76.8999L95.3887 77.0454L96.481 75.9602L97.5764 77.0454L97.7233 76.8999L96.631 75.8147L97.7233 74.7295L97.5764 74.584Z" fill="white"/>
<path d="M97.7233 79.7765L97.5764 79.6279L96.481 80.7131L95.3856 79.6279L95.2388 79.7765L96.3342 80.8586L95.2388 81.9438L95.3856 82.0893L96.481 81.0072L97.1175 81.6346L97.2337 81.4588L96.6218 80.8526L97.7233 79.7765Z" fill="white"/>
<path d="M90.1597 16.3743L90.3096 16.5229L90.9918 15.8439C90.9429 15.7954 90.897 15.7439 90.848 15.6924L90.1597 16.3743Z" fill="white"/>
<path d="M92.4851 19.1035L91.3897 20.1887L90.2974 19.1035L90.1475 19.252L91.2429 20.3342L90.1475 21.4194L90.2974 21.5649L91.3897 20.4827L92.4851 21.5649L92.632 21.4194L91.5397 20.3342L92.632 19.252L92.4851 19.1035Z" fill="white"/>
<path d="M92.4851 24.1475L91.3897 25.2327L90.2974 24.1475L90.1475 24.293L91.2429 25.3782L90.1475 26.4633L90.2974 26.6088L91.3897 25.5237L92.4851 26.6088L92.632 26.4633L91.5397 25.3782L92.632 24.293L92.4851 24.1475Z" fill="white"/>
<path d="M92.4851 29.1914L91.3897 30.2766L90.2974 29.1914L90.1475 29.3369L91.2429 30.4221L90.1475 31.5073L90.2974 31.6528L91.3897 30.5676L92.4851 31.6528L92.632 31.5073L91.5397 30.4221L92.632 29.3369L92.4851 29.1914Z" fill="white"/>
<path d="M92.4851 34.2354L91.3897 35.3205L90.2974 34.2354L90.1475 34.3809L91.2429 35.466L90.1475 36.5512L90.2974 36.6967L91.3897 35.6115L92.4851 36.6967L92.632 36.5512L91.5397 35.466L92.632 34.3809L92.4851 34.2354Z" fill="white"/>
<path d="M92.4851 39.2793L91.3897 40.3645L90.2974 39.2793L90.1475 39.4248L91.2429 40.51L90.1475 41.5952L90.2974 41.7407L91.3897 40.6555L92.4851 41.7407L92.632 41.5952L91.5397 40.51L92.632 39.4248L92.4851 39.2793Z" fill="white"/>
<path d="M92.4851 44.3232L91.3897 45.4054L90.2974 44.3232L90.1475 44.4687L91.2429 45.5539L90.1475 46.6361L90.2974 46.7846L91.3897 45.6994L92.4851 46.7846L92.632 46.6361L91.5397 45.5539L92.632 44.4687L92.4851 44.3232Z" fill="white"/>
<path d="M92.4851 49.3672L91.3897 50.4493L90.2974 49.3672L90.1475 49.5127L91.2429 50.5979L90.1475 51.68L90.2974 51.8286L91.3897 50.7434L92.4851 51.8286L92.632 51.68L91.5397 50.5979L92.632 49.5127L92.4851 49.3672Z" fill="white"/>
<path d="M92.4851 54.4111L91.3897 55.4933L90.2974 54.4111L90.1475 54.5566L91.2429 55.6418L90.1475 56.724L90.2974 56.8725L91.3897 55.7873L92.4851 56.8725L92.632 56.724L91.5397 55.6418L92.632 54.5566L92.4851 54.4111Z" fill="white"/>
<path d="M92.4851 59.4521L91.3897 60.5373L90.2974 59.4521L90.1475 59.6007L91.2429 60.6828L90.1475 61.768L90.2974 61.9135L91.3897 60.8314L92.4851 61.9135L92.632 61.768L91.5397 60.6828L92.632 59.6007L92.4851 59.4521Z" fill="white"/>
<path d="M92.4851 64.4961L91.3897 65.5813L90.2974 64.4961L90.1475 64.6446L91.2429 65.7268L90.1475 66.812L90.2974 66.9575L91.3897 65.8753L92.4851 66.9575L92.632 66.812L91.5397 65.7268L92.632 64.6446L92.4851 64.4961Z" fill="white"/>
<path d="M92.4851 69.54L91.3897 70.6252L90.2974 69.54L90.1475 69.6886L91.2429 70.7707L90.1475 71.8559L90.2974 72.0014L91.3897 70.9193L92.4851 72.0014L92.632 71.8559L91.5397 70.7707L92.632 69.6886L92.4851 69.54Z" fill="white"/>
<path d="M92.4851 74.584L91.3897 75.6692L90.2974 74.584L90.1475 74.7295L91.2429 75.8147L90.1475 76.8999L90.2974 77.0454L91.3897 75.9602L92.4851 77.0454L92.632 76.8999L91.5397 75.8147L92.632 74.7295L92.4851 74.584Z" fill="white"/>
<path d="M92.4851 79.6279L91.3897 80.7131L90.2974 79.6279L90.1475 79.7734L91.2429 80.8586L90.1475 81.9438L90.2974 82.0893L91.3897 81.0041L92.4851 82.0893L92.632 81.9438L91.5397 80.8586L92.632 79.7734L92.4851 79.6279Z" fill="white"/>
<path d="M92.4851 84.6719L91.3897 85.754L90.2974 84.6719L90.1475 84.8174L91.2429 85.9026L90.1475 86.9847L90.2974 87.1333L91.3897 86.0481L92.4851 87.1333L92.632 86.9847L91.5397 85.9026L92.632 84.8174L92.4851 84.6719Z" fill="white"/>
<path d="M90.2965 89.7168L90.1475 89.8614L90.2022 89.9157L90.3513 89.774L90.2965 89.7168Z" fill="white"/>
<path d="M85.2056 11.4796L85.6094 11.0765L85.4442 10.9492L85.0557 11.3311L85.2056 11.4796Z" fill="white"/>
<path d="M87.3933 14.0586L86.2979 15.1438L85.2056 14.0586L85.0557 14.2071L86.1511 15.2893L85.0557 16.3745L85.2056 16.52L86.2979 15.4378L87.3933 16.52L87.5402 16.3745L86.4479 15.2893L87.5402 14.2071L87.3933 14.0586Z" fill="white"/>
<path d="M87.3933 19.1035L86.2979 20.1887L85.2056 19.1035L85.0557 19.252L86.1511 20.3342L85.0557 21.4194L85.2056 21.5649L86.2979 20.4827L87.3933 21.5649L87.5402 21.4194L86.4479 20.3342L87.5402 19.252L87.3933 19.1035Z" fill="white"/>
<path d="M87.3933 24.1475L86.2979 25.2327L85.2056 24.1475L85.0557 24.293L86.1511 25.3782L85.0557 26.4633L85.2056 26.6088L86.2979 25.5237L87.3933 26.6088L87.5402 26.4633L86.4479 25.3782L87.5402 24.293L87.3933 24.1475Z" fill="white"/>
<path d="M87.3933 29.1914L86.2979 30.2766L85.2056 29.1914L85.0557 29.3369L86.1511 30.4221L85.0557 31.5073L85.2056 31.6528L86.2979 30.5676L87.3933 31.6528L87.5402 31.5073L86.4479 30.4221L87.5402 29.3369L87.3933 29.1914Z" fill="white"/>
<path d="M87.3933 34.2354L86.2979 35.3205L85.2056 34.2354L85.0557 34.3809L86.1511 35.466L85.0557 36.5512L85.2056 36.6967L86.2979 35.6115L87.3933 36.6967L87.5402 36.5512L86.4479 35.466L87.5402 34.3809L87.3933 34.2354Z" fill="white"/>
<path d="M87.3933 39.2793L86.2979 40.3645L85.2056 39.2793L85.0557 39.4248L86.1511 40.51L85.0557 41.5952L85.2056 41.7407L86.2979 40.6555L87.3933 41.7407L87.5402 41.5952L86.4479 40.51L87.5402 39.4248L87.3933 39.2793Z" fill="white"/>
<path d="M87.3933 44.3232L86.2979 45.4054L85.2056 44.3232L85.0557 44.4687L86.1511 45.5539L85.0557 46.6361L85.2056 46.7846L86.2979 45.6994L87.3933 46.7846L87.5402 46.6361L86.4479 45.5539L87.5402 44.4687L87.3933 44.3232Z" fill="white"/>
<path d="M87.3933 49.3672L86.2979 50.4493L85.2056 49.3672L85.0557 49.5127L86.1511 50.5979L85.0557 51.68L85.2056 51.8286L86.2979 50.7434L87.3933 51.8286L87.5402 51.68L86.4479 50.5979L87.5402 49.5127L87.3933 49.3672Z" fill="white"/>
<path d="M87.3933 54.4111L86.2979 55.4933L85.2056 54.4111L85.0557 54.5566L86.1511 55.6418L85.0557 56.724L85.2056 56.8725L86.2979 55.7873L87.3933 56.8725L87.5402 56.724L86.4479 55.6418L87.5402 54.5566L87.3933 54.4111Z" fill="white"/>
<path d="M87.3933 59.4521L86.2979 60.5373L85.2056 59.4521L85.0557 59.6007L86.1511 60.6828L85.0557 61.768L85.2056 61.9135L86.2979 60.8314L87.3933 61.9135L87.5402 61.768L86.4479 60.6828L87.5402 59.6007L87.3933 59.4521Z" fill="white"/>
<path d="M87.3933 64.4961L86.2979 65.5813L85.2056 64.4961L85.0557 64.6446L86.1511 65.7268L85.0557 66.812L85.2056 66.9575L86.2979 65.8753L87.3933 66.9575L87.5402 66.812L86.4479 65.7268L87.5402 64.6446L87.3933 64.4961Z" fill="white"/>
<path d="M87.3933 69.54L86.2979 70.6252L85.2056 69.54L85.0557 69.6886L86.1511 70.7707L85.0557 71.8559L85.2056 72.0014L86.2979 70.9193L87.3933 72.0014L87.5402 71.8559L86.4479 70.7707L87.5402 69.6886L87.3933 69.54Z" fill="white"/>
<path d="M87.3933 74.584L86.2979 75.6692L85.2056 74.584L85.0557 74.7295L86.1511 75.8147L85.0557 76.8999L85.2056 77.0454L86.2979 75.9602L87.3933 77.0454L87.5402 76.8999L86.4479 75.8147L87.5402 74.7295L87.3933 74.584Z" fill="white"/>
<path d="M87.3933 79.6279L86.2979 80.7131L85.2056 79.6279L85.0557 79.7734L86.1511 80.8586L85.0557 81.9438L85.2056 82.0893L86.2979 81.0041L87.3933 82.0893L87.5402 81.9438L86.4479 80.8586L87.5402 79.7734L87.3933 79.6279Z" fill="white"/>
<path d="M87.3933 84.6719L86.2979 85.754L85.2056 84.6719L85.0557 84.8174L86.1511 85.9026L85.0557 86.9847L85.2056 87.1333L86.2979 86.0481L87.3933 87.1333L87.5402 86.9847L86.4479 85.9026L87.5402 84.8174L87.3933 84.6719Z" fill="white"/>
<path d="M87.3933 89.7168L86.2979 90.799L85.2056 89.7168L85.0557 89.8623L86.1511 90.9475L85.0557 92.0297L85.2056 92.1782L86.2979 91.093L87.3933 92.1782L87.5402 92.0297L86.4479 90.9475L87.5402 89.8623L87.3933 89.7168Z" fill="white"/>
<path d="M82.3019 9.01758L81.2065 10.0997L80.1141 9.01758L79.9673 9.16308L81.0596 10.2452L79.9673 11.3304L80.1141 11.4759L81.2065 10.3938L82.3019 11.4759L82.4488 11.3304L81.3564 10.2452L82.4488 9.16308L82.3019 9.01758Z" fill="white"/>
<path d="M82.3019 14.0586L81.2065 15.1438L80.1141 14.0586L79.9673 14.2071L81.0596 15.2893L79.9673 16.3745L80.1141 16.52L81.2065 15.4378L82.3019 16.52L82.4488 16.3745L81.3564 15.2893L82.4488 14.2071L82.3019 14.0586Z" fill="white"/>
<path d="M82.3019 19.1035L81.2065 20.1887L80.1141 19.1035L79.9673 19.252L81.0596 20.3342L79.9673 21.4194L80.1141 21.5649L81.2065 20.4827L82.3019 21.5649L82.4488 21.4194L81.3564 20.3342L82.4488 19.252L82.3019 19.1035Z" fill="white"/>
<path d="M82.3019 24.1475L81.2065 25.2327L80.1141 24.1475L79.9673 24.293L81.0596 25.3782L79.9673 26.4633L80.1141 26.6088L81.2065 25.5237L82.3019 26.6088L82.4488 26.4633L81.3564 25.3782L82.4488 24.293L82.3019 24.1475Z" fill="white"/>
<path d="M82.3019 29.1914L81.2065 30.2766L80.1141 29.1914L79.9673 29.3369L81.0596 30.4221L79.9673 31.5073L80.1141 31.6528L81.2065 30.5676L82.3019 31.6528L82.4488 31.5073L81.3564 30.4221L82.4488 29.3369L82.3019 29.1914Z" fill="white"/>
<path d="M82.3019 34.2354L81.2065 35.3205L80.1141 34.2354L79.9673 34.3809L81.0596 35.466L79.9673 36.5512L80.1141 36.6967L81.2065 35.6115L82.3019 36.6967L82.4488 36.5512L81.3564 35.466L82.4488 34.3809L82.3019 34.2354Z" fill="white"/>
<path d="M82.3019 39.2793L81.2065 40.3645L80.1141 39.2793L79.9673 39.4248L81.0596 40.51L79.9673 41.5952L80.1141 41.7407L81.2065 40.6555L82.3019 41.7407L82.4488 41.5952L81.3564 40.51L82.4488 39.4248L82.3019 39.2793Z" fill="white"/>
<path d="M82.3019 44.3232L81.2065 45.4054L80.1141 44.3232L79.9673 44.4687L81.0596 45.5539L79.9673 46.6361L80.1141 46.7846L81.2065 45.6994L82.3019 46.7846L82.4488 46.6361L81.3564 45.5539L82.4488 44.4687L82.3019 44.3232Z" fill="white"/>
<path d="M82.3019 49.3672L81.2065 50.4493L80.1141 49.3672L79.9673 49.5127L81.0596 50.5979L79.9673 51.68L80.1141 51.8286L81.2065 50.7434L82.3019 51.8286L82.4488 51.68L81.3564 50.5979L82.4488 49.5127L82.3019 49.3672Z" fill="white"/>
<path d="M82.3019 54.4111L81.2065 55.4933L80.1141 54.4111L79.9673 54.5566L81.0596 55.6418L79.9673 56.724L80.1141 56.8725L81.2065 55.7873L82.3019 56.8725L82.4488 56.724L81.3564 55.6418L82.4488 54.5566L82.3019 54.4111Z" fill="white"/>
<path d="M82.3019 59.4521L81.2065 60.5373L80.1141 59.4521L79.9673 59.6007L81.0596 60.6828L79.9673 61.768L80.1141 61.9135L81.2065 60.8314L82.3019 61.9135L82.4488 61.768L81.3564 60.6828L82.4488 59.6007L82.3019 59.4521Z" fill="white"/>
<path d="M82.3019 64.4961L81.2065 65.5813L80.1141 64.4961L79.9673 64.6446L81.0596 65.7268L79.9673 66.812L80.1141 66.9575L81.2065 65.8753L82.3019 66.9575L82.4488 66.812L81.3564 65.7268L82.4488 64.6446L82.3019 64.4961Z" fill="white"/>
<path d="M82.3019 69.54L81.2065 70.6252L80.1141 69.54L79.9673 69.6886L81.0596 70.7707L79.9673 71.8559L80.1141 72.0014L81.2065 70.9193L82.3019 72.0014L82.4488 71.8559L81.3564 70.7707L82.4488 69.6886L82.3019 69.54Z" fill="white"/>
<path d="M82.3019 74.584L81.2065 75.6692L80.1141 74.584L79.9673 74.7295L81.0596 75.8147L79.9673 76.8999L80.1141 77.0454L81.2065 75.9602L82.3019 77.0454L82.4488 76.8999L81.3564 75.8147L82.4488 74.7295L82.3019 74.584Z" fill="white"/>
<path d="M82.3019 79.6279L81.2065 80.7131L80.1141 79.6279L79.9673 79.7734L81.0596 80.8586L79.9673 81.9438L80.1141 82.0893L81.2065 81.0041L82.3019 82.0893L82.4488 81.9438L81.3564 80.8586L82.4488 79.7734L82.3019 79.6279Z" fill="white"/>
<path d="M82.3019 84.6719L81.2065 85.754L80.1141 84.6719L79.9673 84.8174L81.0596 85.9026L79.9673 86.9847L80.1141 87.1333L81.2065 86.0481L82.3019 87.1333L82.4488 86.9847L81.3564 85.9026L82.4488 84.8174L82.3019 84.6719Z" fill="white"/>
<path d="M82.3019 89.7168L81.2065 90.799L80.1141 89.7168L79.9673 89.8623L81.0596 90.9475L79.9673 92.0297L80.1141 92.1782L81.2065 91.093L82.3019 92.1782L82.4488 92.0297L81.3564 90.9475L82.4488 89.8623L82.3019 89.7168Z" fill="white"/>
<path d="M82.4489 94.9062L82.302 94.7607L81.2066 95.8459L80.1143 94.7698L79.9644 94.9153L81.0598 96.0005L79.9644 97.0857L80.1143 97.2312L81.2066 96.146L81.7176 96.6522L81.8981 96.5371L81.3566 95.9823L82.4489 94.9062Z" fill="white"/>
<path d="M74.876 6.2898L75.0228 6.4353L76.1182 5.34707L77.2106 6.43227L77.3605 6.28676L76.4059 5.34707C76.21 5.25007 76.0173 5.15307 75.8184 5.04395L75.9683 5.19248L74.876 6.2898Z" fill="white"/>
<path d="M77.2106 9.01758L76.1182 10.0997L75.0228 9.01758L74.876 9.16308L75.9683 10.2452L74.876 11.3304L75.0228 11.4759L76.1182 10.3938L77.2106 11.4759L77.3605 11.3304L76.2651 10.2452L77.3605 9.16308L77.2106 9.01758Z" fill="white"/>
<path d="M77.2106 14.0586L76.1182 15.1438L75.0228 14.0586L74.876 14.2071L75.9683 15.2893L74.876 16.3745L75.0228 16.52L76.1182 15.4378L77.2106 16.52L77.3605 16.3745L76.2651 15.2893L77.3605 14.2071L77.2106 14.0586Z" fill="white"/>
<path d="M77.2106 19.1035L76.1182 20.1887L75.0228 19.1035L74.876 19.252L75.9683 20.3342L74.876 21.4194L75.0228 21.5649L76.1182 20.4827L77.2106 21.5649L77.3605 21.4194L76.2651 20.3342L77.3605 19.252L77.2106 19.1035Z" fill="white"/>
<path d="M77.2106 24.1475L76.1182 25.2327L75.0228 24.1475L74.876 24.293L75.9683 25.3782L74.876 26.4633L75.0228 26.6088L76.1182 25.5237L77.2106 26.6088L77.3605 26.4633L76.2651 25.3782L77.3605 24.293L77.2106 24.1475Z" fill="white"/>
<path d="M77.2106 29.1914L76.1182 30.2766L75.0228 29.1914L74.876 29.3369L75.9683 30.4221L74.876 31.5073L75.0228 31.6528L76.1182 30.5676L77.2106 31.6528L77.3605 31.5073L76.2651 30.4221L77.3605 29.3369L77.2106 29.1914Z" fill="white"/>
<path d="M77.2106 34.2354L76.1182 35.3205L75.0228 34.2354L74.876 34.3809L75.9683 35.466L74.876 36.5512L75.0228 36.6967L76.1182 35.6115L77.2106 36.6967L77.3605 36.5512L76.2651 35.466L77.3605 34.3809L77.2106 34.2354Z" fill="white"/>
<path d="M77.2106 39.2793L76.1182 40.3645L75.0228 39.2793L74.876 39.4248L75.9683 40.51L74.876 41.5952L75.0228 41.7407L76.1182 40.6555L77.2106 41.7407L77.3605 41.5952L76.2651 40.51L77.3605 39.4248L77.2106 39.2793Z" fill="white"/>
<path d="M77.2106 44.3232L76.1182 45.4054L75.0228 44.3232L74.876 44.4687L75.9683 45.5539L74.876 46.6361L75.0228 46.7846L76.1182 45.6994L77.2106 46.7846L77.3605 46.6361L76.2651 45.5539L77.3605 44.4687L77.2106 44.3232Z" fill="white"/>
<path d="M77.2106 49.3672L76.1182 50.4493L75.0228 49.3672L74.876 49.5127L75.9683 50.5979L74.876 51.68L75.0228 51.8286L76.1182 50.7434L77.2106 51.8286L77.3605 51.68L76.2651 50.5979L77.3605 49.5127L77.2106 49.3672Z" fill="white"/>
<path d="M77.2106 54.4111L76.1182 55.4933L75.0228 54.4111L74.876 54.5566L75.9683 55.6418L74.876 56.724L75.0228 56.8725L76.1182 55.7873L77.2106 56.8725L77.3605 56.724L76.2651 55.6418L77.3605 54.5566L77.2106 54.4111Z" fill="white"/>
<path d="M77.2106 59.4521L76.1182 60.5373L75.0228 59.4521L74.876 59.6007L75.9683 60.6828L74.876 61.768L75.0228 61.9135L76.1182 60.8314L77.2106 61.9135L77.3605 61.768L76.2651 60.6828L77.3605 59.6007L77.2106 59.4521Z" fill="white"/>
<path d="M77.2106 64.4961L76.1182 65.5813L75.0228 64.4961L74.876 64.6446L75.9683 65.7268L74.876 66.812L75.0228 66.9575L76.1182 65.8753L77.2106 66.9575L77.3605 66.812L76.2651 65.7268L77.3605 64.6446L77.2106 64.4961Z" fill="white"/>
<path d="M77.2106 69.54L76.1182 70.6252L75.0228 69.54L74.876 69.6886L75.9683 70.7707L74.876 71.8559L75.0228 72.0014L76.1182 70.9193L77.2106 72.0014L77.3605 71.8559L76.2651 70.7707L77.3605 69.6886L77.2106 69.54Z" fill="white"/>
<path d="M77.2106 74.584L76.1182 75.6692L75.0228 74.584L74.876 74.7295L75.9683 75.8147L74.876 76.8999L75.0228 77.0454L76.1182 75.9602L77.2106 77.0454L77.3605 76.8999L76.2651 75.8147L77.3605 74.7295L77.2106 74.584Z" fill="white"/>
<path d="M77.2106 79.6279L76.1182 80.7131L75.0228 79.6279L74.876 79.7734L75.9683 80.8586L74.876 81.9438L75.0228 82.0893L76.1182 81.0041L77.2106 82.0893L77.3605 81.9438L76.2651 80.8586L77.3605 79.7734L77.2106 79.6279Z" fill="white"/>
<path d="M77.2106 84.6719L76.1182 85.754L75.0228 84.6719L74.876 84.8174L75.9683 85.9026L74.876 86.9847L75.0228 87.1333L76.1182 86.0481L77.2106 87.1333L77.3605 86.9847L76.2651 85.9026L77.3605 84.8174L77.2106 84.6719Z" fill="white"/>
<path d="M77.2106 89.7168L76.1182 90.799L75.0228 89.7168L74.876 89.8623L75.9683 90.9475L74.876 92.0297L75.0228 92.1782L76.1182 91.093L77.2106 92.1782L77.3605 92.0297L76.2651 90.9475L77.3605 89.8623L77.2106 89.7168Z" fill="white"/>
<path d="M77.2106 94.7607L76.1182 95.8429L75.0228 94.7607L74.876 94.9062L75.9683 95.9914L74.876 97.0736L75.0228 97.2221L76.1182 96.1369L77.2106 97.2221L77.3605 97.0736L76.2651 95.9914L77.3605 94.9062L77.2106 94.7607Z" fill="white"/>
<path d="M74.876 99.9502L75.1483 100.223L75.3532 100.132L75.0228 99.8047L74.876 99.9502Z" fill="white"/>
<path d="M72.1193 3.97363L71.0269 5.05579L69.9315 3.97363L69.7847 4.11913L70.877 5.20433L69.7847 6.28649L69.9315 6.43502L71.0269 5.34983L72.1193 6.43502L72.2692 6.28649L71.1738 5.20433L72.2692 4.11913L72.1193 3.97363Z" fill="white"/>
<path d="M72.1193 9.01758L71.0269 10.0997L69.9315 9.01758L69.7847 9.16308L70.877 10.2452L69.7847 11.3304L69.9315 11.4759L71.0269 10.3938L72.1193 11.4759L72.2692 11.3304L71.1738 10.2452L72.2692 9.16308L72.1193 9.01758Z" fill="white"/>
<path d="M72.1193 14.0586L71.0269 15.1438L69.9315 14.0586L69.7847 14.2071L70.877 15.2893L69.7847 16.3745L69.9315 16.52L71.0269 15.4378L72.1193 16.52L72.2692 16.3745L71.1738 15.2893L72.2692 14.2071L72.1193 14.0586Z" fill="white"/>
<path d="M72.1193 19.1035L71.0269 20.1887L69.9315 19.1035L69.7847 19.252L70.877 20.3342L69.7847 21.4194L69.9315 21.5649L71.0269 20.4827L72.1193 21.5649L72.2692 21.4194L71.1738 20.3342L72.2692 19.252L72.1193 19.1035Z" fill="white"/>
<path d="M72.1193 24.1475L71.0269 25.2327L69.9315 24.1475L69.7847 24.293L70.877 25.3782L69.7847 26.4633L69.9315 26.6088L71.0269 25.5237L72.1193 26.6088L72.2692 26.4633L71.1738 25.3782L72.2692 24.293L72.1193 24.1475Z" fill="white"/>
<path d="M72.1193 29.1914L71.0269 30.2766L69.9315 29.1914L69.7847 29.3369L70.877 30.4221L69.7847 31.5073L69.9315 31.6528L71.0269 30.5676L72.1193 31.6528L72.2692 31.5073L71.1738 30.4221L72.2692 29.3369L72.1193 29.1914Z" fill="white"/>
<path d="M72.1193 34.2354L71.0269 35.3205L69.9315 34.2354L69.7847 34.3809L70.877 35.466L69.7847 36.5512L69.9315 36.6967L71.0269 35.6115L72.1193 36.6967L72.2692 36.5512L71.1738 35.466L72.2692 34.3809L72.1193 34.2354Z" fill="white"/>
<path d="M72.1193 39.2793L71.0269 40.3645L69.9315 39.2793L69.7847 39.4248L70.877 40.51L69.7847 41.5952L69.9315 41.7407L71.0269 40.6555L72.1193 41.7407L72.2692 41.5952L71.1738 40.51L72.2692 39.4248L72.1193 39.2793Z" fill="white"/>
<path d="M72.1193 44.3232L71.0269 45.4054L69.9315 44.3232L69.7847 44.4687L70.877 45.5539L69.7847 46.6361L69.9315 46.7846L71.0269 45.6994L72.1193 46.7846L72.2692 46.6361L71.1738 45.5539L72.2692 44.4687L72.1193 44.3232Z" fill="white"/>
<path d="M72.1193 49.3672L71.0269 50.4493L69.9315 49.3672L69.7847 49.5127L70.877 50.5979L69.7847 51.68L69.9315 51.8286L71.0269 50.7434L72.1193 51.8286L72.2692 51.68L71.1738 50.5979L72.2692 49.5127L72.1193 49.3672Z" fill="white"/>
<path d="M72.1193 54.4111L71.0269 55.4933L69.9315 54.4111L69.7847 54.5566L70.877 55.6418L69.7847 56.724L69.9315 56.8725L71.0269 55.7873L72.1193 56.8725L72.2692 56.724L71.1738 55.6418L72.2692 54.5566L72.1193 54.4111Z" fill="white"/>
<path d="M72.1193 59.4521L71.0269 60.5373L69.9315 59.4521L69.7847 59.6007L70.877 60.6828L69.7847 61.768L69.9315 61.9135L71.0269 60.8314L72.1193 61.9135L72.2692 61.768L71.1738 60.6828L72.2692 59.6007L72.1193 59.4521Z" fill="white"/>
<path d="M72.1193 64.4961L71.0269 65.5813L69.9315 64.4961L69.7847 64.6446L70.877 65.7268L69.7847 66.812L69.9315 66.9575L71.0269 65.8753L72.1193 66.9575L72.2692 66.812L71.1738 65.7268L72.2692 64.6446L72.1193 64.4961Z" fill="white"/>
<path d="M72.1193 69.54L71.0269 70.6252L69.9315 69.54L69.7847 69.6886L70.877 70.7707L69.7847 71.8559L69.9315 72.0014L71.0269 70.9193L72.1193 72.0014L72.2692 71.8559L71.1738 70.7707L72.2692 69.6886L72.1193 69.54Z" fill="white"/>
<path d="M72.1193 74.584L71.0269 75.6692L69.9315 74.584L69.7847 74.7295L70.877 75.8147L69.7847 76.8999L69.9315 77.0454L71.0269 75.9602L72.1193 77.0454L72.2692 76.8999L71.1738 75.8147L72.2692 74.7295L72.1193 74.584Z" fill="white"/>
<path d="M72.1193 79.6279L71.0269 80.7131L69.9315 79.6279L69.7847 79.7734L70.877 80.8586L69.7847 81.9438L69.9315 82.0893L71.0269 81.0041L72.1193 82.0893L72.2692 81.9438L71.1738 80.8586L72.2692 79.7734L72.1193 79.6279Z" fill="white"/>
<path d="M72.1193 84.6719L71.0269 85.754L69.9315 84.6719L69.7847 84.8174L70.877 85.9026L69.7847 86.9847L69.9315 87.1333L71.0269 86.0481L72.1193 87.1333L72.2692 86.9847L71.1738 85.9026L72.2692 84.8174L72.1193 84.6719Z" fill="white"/>
<path d="M72.1193 89.7168L71.0269 90.799L69.9315 89.7168L69.7847 89.8623L70.877 90.9475L69.7847 92.0297L69.9315 92.1782L71.0269 91.093L72.1193 92.1782L72.2692 92.0297L71.1738 90.9475L72.2692 89.8623L72.1193 89.7168Z" fill="white"/>
<path d="M72.1193 94.7607L71.0269 95.8429L69.9315 94.7607L69.7847 94.9062L70.877 95.9914L69.7847 97.0736L69.9315 97.2221L71.0269 96.1369L72.1193 97.2221L72.2692 97.0736L71.1738 95.9914L72.2692 94.9062L72.1193 94.7607Z" fill="white"/>
<path d="M72.2692 99.9502L72.1193 99.8047L71.0269 100.89L69.9315 99.8047L69.7847 99.9502L70.877 101.035L69.7847 102.121L69.9315 102.266L71.0269 101.181L71.5593 101.711L71.7735 101.626L71.1616 101.035L72.2692 99.9502Z" fill="white"/>
<path d="M64.8396 1.40612L64.9283 1.31823L64.6958 1.26367L64.8396 1.40612Z" fill="white"/>
<path d="M67.0275 3.97363L65.9351 5.05579L64.8397 3.97363L64.6929 4.11913L65.7852 5.20433L64.6929 6.28649L64.8397 6.43502L65.9351 5.34983L67.0275 6.43502L67.1774 6.28649L66.082 5.20433L67.1774 4.11913L67.0275 3.97363Z" fill="white"/>
<path d="M67.0275 9.01758L65.9351 10.0997L64.8397 9.01758L64.6929 9.16308L65.7852 10.2452L64.6929 11.3304L64.8397 11.4759L65.9351 10.3938L67.0275 11.4759L67.1774 11.3304L66.082 10.2452L67.1774 9.16308L67.0275 9.01758Z" fill="white"/>
<path d="M67.0275 14.0586L65.9351 15.1438L64.8397 14.0586L64.6929 14.2071L65.7852 15.2893L64.6929 16.3745L64.8397 16.52L65.9351 15.4378L67.0275 16.52L67.1774 16.3745L66.082 15.2893L67.1774 14.2071L67.0275 14.0586Z" fill="white"/>
<path d="M67.0275 19.1035L65.9351 20.1887L64.8397 19.1035L64.6929 19.252L65.7852 20.3342L64.6929 21.4194L64.8397 21.5649L65.9351 20.4827L67.0275 21.5649L67.1774 21.4194L66.082 20.3342L67.1774 19.252L67.0275 19.1035Z" fill="white"/>
<path d="M67.0275 24.1475L65.9351 25.2327L64.8397 24.1475L64.6929 24.293L65.7852 25.3782L64.6929 26.4633L64.8397 26.6088L65.9351 25.5237L67.0275 26.6088L67.1774 26.4633L66.082 25.3782L67.1774 24.293L67.0275 24.1475Z" fill="white"/>
<path d="M67.0275 29.1914L65.9351 30.2766L64.8397 29.1914L64.6929 29.3369L65.7852 30.4221L64.6929 31.5073L64.8397 31.6528L65.9351 30.5676L67.0275 31.6528L67.1774 31.5073L66.082 30.4221L67.1774 29.3369L67.0275 29.1914Z" fill="white"/>
<path d="M67.0275 34.2354L65.9351 35.3205L64.8397 34.2354L64.6929 34.3809L65.7852 35.466L64.6929 36.5512L64.8397 36.6967L65.9351 35.6115L67.0275 36.6967L67.1774 36.5512L66.082 35.466L67.1774 34.3809L67.0275 34.2354Z" fill="white"/>
<path d="M67.0275 39.2793L65.9351 40.3645L64.8397 39.2793L64.6929 39.4248L65.7852 40.51L64.6929 41.5952L64.8397 41.7407L65.9351 40.6555L67.0275 41.7407L67.1774 41.5952L66.082 40.51L67.1774 39.4248L67.0275 39.2793Z" fill="white"/>
<path d="M67.0275 44.3232L65.9351 45.4054L64.8397 44.3232L64.6929 44.4687L65.7852 45.5539L64.6929 46.6361L64.8397 46.7846L65.9351 45.6994L67.0275 46.7846L67.1774 46.6361L66.082 45.5539L67.1774 44.4687L67.0275 44.3232Z" fill="white"/>
<path d="M67.0275 49.3672L65.9351 50.4493L64.8397 49.3672L64.6929 49.5127L65.7852 50.5979L64.6929 51.68L64.8397 51.8286L65.9351 50.7434L67.0275 51.8286L67.1774 51.68L66.082 50.5979L67.1774 49.5127L67.0275 49.3672Z" fill="white"/>
<path d="M67.0275 54.4111L65.9351 55.4933L64.8397 54.4111L64.6929 54.5566L65.7852 55.6418L64.6929 56.724L64.8397 56.8725L65.9351 55.7873L67.0275 56.8725L67.1774 56.724L66.082 55.6418L67.1774 54.5566L67.0275 54.4111Z" fill="white"/>
<path d="M67.0275 59.4521L65.9351 60.5373L64.8397 59.4521L64.6929 59.6007L65.7852 60.6828L64.6929 61.768L64.8397 61.9135L65.9351 60.8314L67.0275 61.9135L67.1774 61.768L66.082 60.6828L67.1774 59.6007L67.0275 59.4521Z" fill="white"/>
<path d="M67.0275 64.4961L65.9351 65.5813L64.8397 64.4961L64.6929 64.6446L65.7852 65.7268L64.6929 66.812L64.8397 66.9575L65.9351 65.8753L67.0275 66.9575L67.1774 66.812L66.082 65.7268L67.1774 64.6446L67.0275 64.4961Z" fill="white"/>
<path d="M67.0275 69.54L65.9351 70.6252L64.8397 69.54L64.6929 69.6886L65.7852 70.7707L64.6929 71.8559L64.8397 72.0014L65.9351 70.9193L67.0275 72.0014L67.1774 71.8559L66.082 70.7707L67.1774 69.6886L67.0275 69.54Z" fill="white"/>
<path d="M67.0275 74.584L65.9351 75.6692L64.8397 74.584L64.6929 74.7295L65.7852 75.8147L64.6929 76.8999L64.8397 77.0454L65.9351 75.9602L67.0275 77.0454L67.1774 76.8999L66.082 75.8147L67.1774 74.7295L67.0275 74.584Z" fill="white"/>
<path d="M67.0275 79.6279L65.9351 80.7131L64.8397 79.6279L64.6929 79.7734L65.7852 80.8586L64.6929 81.9438L64.8397 82.0893L65.9351 81.0041L67.0275 82.0893L67.1774 81.9438L66.082 80.8586L67.1774 79.7734L67.0275 79.6279Z" fill="white"/>
<path d="M67.0275 84.6719L65.9351 85.754L64.8397 84.6719L64.6929 84.8174L65.7852 85.9026L64.6929 86.9847L64.8397 87.1333L65.9351 86.0481L67.0275 87.1333L67.1774 86.9847L66.082 85.9026L67.1774 84.8174L67.0275 84.6719Z" fill="white"/>
<path d="M67.0275 89.7168L65.9351 90.799L64.8397 89.7168L64.6929 89.8623L65.7852 90.9475L64.6929 92.0297L64.8397 92.1782L65.9351 91.093L67.0275 92.1782L67.1774 92.0297L66.082 90.9475L67.1774 89.8623L67.0275 89.7168Z" fill="white"/>
<path d="M67.0275 94.7607L65.9351 95.8429L64.8397 94.7607L64.6929 94.9062L65.7852 95.9914L64.6929 97.0736L64.8397 97.2221L65.9351 96.1369L67.0275 97.2221L67.1774 97.0736L66.082 95.9914L67.1774 94.9062L67.0275 94.7607Z" fill="white"/>
<path d="M67.0275 99.8047L65.9351 100.887L64.8397 99.8047L64.6929 99.9502L65.7852 101.035L64.6929 102.118L64.8397 102.266L65.9351 101.181L67.0275 102.266L67.1774 102.118L66.082 101.035L67.1774 99.9502L67.0275 99.8047Z" fill="white"/>
<path d="M62.0857 1.246L61.4585 0.639821C61.3392 0.621635 61.2199 0.594357 61.1006 0.576172L61.9389 1.40664L62.0857 1.246Z" fill="white"/>
<path d="M59.7484 1.40648L60.6479 0.497207L60.3848 0.463867L59.6016 1.23978L59.7484 1.40648Z" fill="white"/>
<path d="M61.9392 3.97363L60.8438 5.05579L59.7484 3.97363L59.6016 4.11913L60.697 5.20433L59.6016 6.28649L59.7484 6.43502L60.8438 5.34983L61.9392 6.43502L62.0861 6.28649L60.9907 5.20433L62.0861 4.11913L61.9392 3.97363Z" fill="white"/>
<path d="M61.9392 9.01758L60.8438 10.0997L59.7484 9.01758L59.6016 9.16308L60.697 10.2452L59.6016 11.3304L59.7484 11.4759L60.8438 10.3938L61.9392 11.4759L62.0861 11.3304L60.9907 10.2452L62.0861 9.16308L61.9392 9.01758Z" fill="white"/>
<path d="M61.9392 14.0586L60.8438 15.1438L59.7484 14.0586L59.6016 14.2071L60.697 15.2893L59.6016 16.3745L59.7484 16.52L60.8438 15.4378L61.9392 16.52L62.0861 16.3745L60.9907 15.2893L62.0861 14.2071L61.9392 14.0586Z" fill="white"/>
<path d="M61.9392 19.1035L60.8438 20.1887L59.7484 19.1035L59.6016 19.252L60.697 20.3342L59.6016 21.4194L59.7484 21.5649L60.8438 20.4827L61.9392 21.5649L62.0861 21.4194L60.9907 20.3342L62.0861 19.252L61.9392 19.1035Z" fill="white"/>
<path d="M61.9392 24.1475L60.8438 25.2327L59.7484 24.1475L59.6016 24.293L60.697 25.3782L59.6016 26.4633L59.7484 26.6088L60.8438 25.5237L61.9392 26.6088L62.0861 26.4633L60.9907 25.3782L62.0861 24.293L61.9392 24.1475Z" fill="white"/>
<path d="M61.9392 29.1914L60.8438 30.2766L59.7484 29.1914L59.6016 29.3369L60.697 30.4221L59.6016 31.5073L59.7484 31.6528L60.8438 30.5676L61.9392 31.6528L62.0861 31.5073L60.9907 30.4221L62.0861 29.3369L61.9392 29.1914Z" fill="white"/>
<path d="M61.9392 34.2354L60.8438 35.3205L59.7484 34.2354L59.6016 34.3809L60.697 35.466L59.6016 36.5512L59.7484 36.6967L60.8438 35.6115L61.9392 36.6967L62.0861 36.5512L60.9907 35.466L62.0861 34.3809L61.9392 34.2354Z" fill="white"/>
<path d="M61.9392 39.2793L60.8438 40.3645L59.7484 39.2793L59.6016 39.4248L60.697 40.51L59.6016 41.5952L59.7484 41.7407L60.8438 40.6555L61.9392 41.7407L62.0861 41.5952L60.9907 40.51L62.0861 39.4248L61.9392 39.2793Z" fill="white"/>
<path d="M61.9392 44.3232L60.8438 45.4054L59.7484 44.3232L59.6016 44.4687L60.697 45.5539L59.6016 46.6361L59.7484 46.7846L60.8438 45.6994L61.9392 46.7846L62.0861 46.6361L60.9907 45.5539L62.0861 44.4687L61.9392 44.3232Z" fill="white"/>
<path d="M61.9392 49.3672L60.8438 50.4493L59.7484 49.3672L59.6016 49.5127L60.697 50.5979L59.6016 51.68L59.7484 51.8286L60.8438 50.7434L61.9392 51.8286L62.0861 51.68L60.9907 50.5979L62.0861 49.5127L61.9392 49.3672Z" fill="white"/>
<path d="M61.9392 54.4111L60.8438 55.4933L59.7484 54.4111L59.6016 54.5566L60.697 55.6418L59.6016 56.724L59.7484 56.8725L60.8438 55.7873L61.9392 56.8725L62.0861 56.724L60.9907 55.6418L62.0861 54.5566L61.9392 54.4111Z" fill="white"/>
<path d="M61.9392 59.4521L60.8438 60.5373L59.7484 59.4521L59.6016 59.6007L60.697 60.6828L59.6016 61.768L59.7484 61.9135L60.8438 60.8314L61.9392 61.9135L62.0861 61.768L60.9907 60.6828L62.0861 59.6007L61.9392 59.4521Z" fill="white"/>
<path d="M61.9392 64.4961L60.8438 65.5813L59.7484 64.4961L59.6016 64.6446L60.697 65.7268L59.6016 66.812L59.7484 66.9575L60.8438 65.8753L61.9392 66.9575L62.0861 66.812L60.9907 65.7268L62.0861 64.6446L61.9392 64.4961Z" fill="white"/>
<path d="M61.9392 69.54L60.8438 70.6252L59.7484 69.54L59.6016 69.6886L60.697 70.7707L59.6016 71.8559L59.7484 72.0014L60.8438 70.9193L61.9392 72.0014L62.0861 71.8559L60.9907 70.7707L62.0861 69.6886L61.9392 69.54Z" fill="white"/>
<path d="M61.9392 74.584L60.8438 75.6692L59.7484 74.584L59.6016 74.7295L60.697 75.8147L59.6016 76.8999L59.7484 77.0454L60.8438 75.9602L61.9392 77.0454L62.0861 76.8999L60.9907 75.8147L62.0861 74.7295L61.9392 74.584Z" fill="white"/>
<path d="M61.9392 79.6279L60.8438 80.7131L59.7484 79.6279L59.6016 79.7734L60.697 80.8586L59.6016 81.9438L59.7484 82.0893L60.8438 81.0041L61.9392 82.0893L62.0861 81.9438L60.9907 80.8586L62.0861 79.7734L61.9392 79.6279Z" fill="white"/>
<path d="M61.9392 84.6719L60.8438 85.754L59.7484 84.6719L59.6016 84.8174L60.697 85.9026L59.6016 86.9847L59.7484 87.1333L60.8438 86.0481L61.9392 87.1333L62.0861 86.9847L60.9907 85.9026L62.0861 84.8174L61.9392 84.6719Z" fill="white"/>
<path d="M61.9392 89.7168L60.8438 90.799L59.7484 89.7168L59.6016 89.8623L60.697 90.9475L59.6016 92.0297L59.7484 92.1782L60.8438 91.093L61.9392 92.1782L62.0861 92.0297L60.9907 90.9475L62.0861 89.8623L61.9392 89.7168Z" fill="white"/>
<path d="M61.9392 94.7607L60.8438 95.8429L59.7484 94.7607L59.6016 94.9062L60.697 95.9914L59.6016 97.0736L59.7484 97.2221L60.8438 96.1369L61.9392 97.2221L62.0861 97.0736L60.9907 95.9914L62.0861 94.9062L61.9392 94.7607Z" fill="white"/>
<path d="M61.9392 99.8047L60.8438 100.887L59.7484 99.8047L59.6016 99.9502L60.697 101.035L59.6016 102.118L59.7484 102.266L60.8438 101.181L61.9392 102.266L62.0861 102.118L60.9907 101.035L62.0861 99.9502L61.9392 99.8047Z" fill="white"/>
<path d="M55.4552 0.0117188L55.6052 0.160251L54.5098 1.24544L54.6658 1.4061L55.7612 0.320908L56.8474 1.4061L56.9943 1.2606L55.8897 0.160251L56.0121 0.0420315L55.4552 0.0117188Z" fill="white"/>
<path d="M56.8474 3.97363L55.752 5.05579L54.6566 3.97363L54.5098 4.11913L55.6052 5.20433L54.5098 6.28649L54.6566 6.43502L55.752 5.34983L56.8474 6.43502L56.9943 6.28649L55.8989 5.20433L56.9943 4.11913L56.8474 3.97363Z" fill="white"/>
<path d="M56.8474 9.01758L55.752 10.0997L54.6566 9.01758L54.5098 9.16308L55.6052 10.2452L54.5098 11.3304L54.6566 11.4759L55.752 10.3938L56.8474 11.4759L56.9943 11.3304L55.8989 10.2452L56.9943 9.16308L56.8474 9.01758Z" fill="white"/>
<path d="M56.8474 14.0586L55.752 15.1438L54.6566 14.0586L54.5098 14.2071L55.6052 15.2893L54.5098 16.3745L54.6566 16.52L55.752 15.4378L56.8474 16.52L56.9943 16.3745L55.8989 15.2893L56.9943 14.2071L56.8474 14.0586Z" fill="white"/>
<path d="M56.8474 19.1035L55.752 20.1887L54.6566 19.1035L54.5098 19.252L55.6052 20.3342L54.5098 21.4194L54.6566 21.5649L55.752 20.4827L56.8474 21.5649L56.9943 21.4194L55.8989 20.3342L56.9943 19.252L56.8474 19.1035Z" fill="white"/>
<path d="M56.8474 24.1475L55.752 25.2327L54.6566 24.1475L54.5098 24.293L55.6052 25.3782L54.5098 26.4633L54.6566 26.6088L55.752 25.5237L56.8474 26.6088L56.9943 26.4633L55.8989 25.3782L56.9943 24.293L56.8474 24.1475Z" fill="white"/>
<path d="M56.8474 29.1914L55.752 30.2766L54.6566 29.1914L54.5098 29.3369L55.6052 30.4221L54.5098 31.5073L54.6566 31.6528L55.752 30.5676L56.8474 31.6528L56.9943 31.5073L55.8989 30.4221L56.9943 29.3369L56.8474 29.1914Z" fill="white"/>
<path d="M56.8474 34.2354L55.752 35.3205L54.6566 34.2354L54.5098 34.3809L55.6052 35.466L54.5098 36.5512L54.6566 36.6967L55.752 35.6115L56.8474 36.6967L56.9943 36.5512L55.8989 35.466L56.9943 34.3809L56.8474 34.2354Z" fill="white"/>
<path d="M56.8474 39.2793L55.752 40.3645L54.6566 39.2793L54.5098 39.4248L55.6052 40.51L54.5098 41.5952L54.6566 41.7407L55.752 40.6555L56.8474 41.7407L56.9943 41.5952L55.8989 40.51L56.9943 39.4248L56.8474 39.2793Z" fill="white"/>
<path d="M56.8474 44.3232L55.752 45.4054L54.6566 44.3232L54.5098 44.4687L55.6052 45.5539L54.5098 46.6361L54.6566 46.7846L55.752 45.6994L56.8474 46.7846L56.9943 46.6361L55.8989 45.5539L56.9943 44.4687L56.8474 44.3232Z" fill="white"/>
<path d="M56.8474 49.3672L55.752 50.4493L54.6566 49.3672L54.5098 49.5127L55.6052 50.5979L54.5098 51.68L54.6566 51.8286L55.752 50.7434L56.8474 51.8286L56.9943 51.68L55.8989 50.5979L56.9943 49.5127L56.8474 49.3672Z" fill="white"/>
<path d="M56.8474 54.4111L55.752 55.4933L54.6566 54.4111L54.5098 54.5566L55.6052 55.6418L54.5098 56.724L54.6566 56.8725L55.752 55.7873L56.8474 56.8725L56.9943 56.724L55.8989 55.6418L56.9943 54.5566L56.8474 54.4111Z" fill="white"/>
<path d="M56.8474 59.4521L55.752 60.5373L54.6566 59.4521L54.5098 59.6007L55.6052 60.6828L54.5098 61.768L54.6566 61.9135L55.752 60.8314L56.8474 61.9135L56.9943 61.768L55.8989 60.6828L56.9943 59.6007L56.8474 59.4521Z" fill="white"/>
<path d="M56.8474 64.4961L55.752 65.5813L54.6566 64.4961L54.5098 64.6446L55.6052 65.7268L54.5098 66.812L54.6566 66.9575L55.752 65.8753L56.8474 66.9575L56.9943 66.812L55.8989 65.7268L56.9943 64.6446L56.8474 64.4961Z" fill="white"/>
<path d="M56.8474 69.54L55.752 70.6252L54.6566 69.54L54.5098 69.6886L55.6052 70.7707L54.5098 71.8559L54.6566 72.0014L55.752 70.9193L56.8474 72.0014L56.9943 71.8559L55.8989 70.7707L56.9943 69.6886L56.8474 69.54Z" fill="white"/>
<path d="M56.8474 74.584L55.752 75.6692L54.6566 74.584L54.5098 74.7295L55.6052 75.8147L54.5098 76.8999L54.6566 77.0454L55.752 75.9602L56.8474 77.0454L56.9943 76.8999L55.8989 75.8147L56.9943 74.7295L56.8474 74.584Z" fill="white"/>
<path d="M56.8474 79.6279L55.752 80.7131L54.6566 79.6279L54.5098 79.7734L55.6052 80.8586L54.5098 81.9438L54.6566 82.0893L55.752 81.0041L56.8474 82.0893L56.9943 81.9438L55.8989 80.8586L56.9943 79.7734L56.8474 79.6279Z" fill="white"/>
<path d="M56.8474 84.6719L55.752 85.754L54.6566 84.6719L54.5098 84.8174L55.6052 85.9026L54.5098 86.9847L54.6566 87.1333L55.752 86.0481L56.8474 87.1333L56.9943 86.9847L55.8989 85.9026L56.9943 84.8174L56.8474 84.6719Z" fill="white"/>
<path d="M56.8474 89.7168L55.752 90.799L54.6566 89.7168L54.5098 89.8623L55.6052 90.9475L54.5098 92.0297L54.6566 92.1782L55.752 91.093L56.8474 92.1782L56.9943 92.0297L55.8989 90.9475L56.9943 89.8623L56.8474 89.7168Z" fill="white"/>
<path d="M56.8474 94.7607L55.752 95.8429L54.6566 94.7607L54.5098 94.9062L55.6052 95.9914L54.5098 97.0736L54.6566 97.2221L55.752 96.1369L56.8474 97.2221L56.9943 97.0736L55.8989 95.9914L56.9943 94.9062L56.8474 94.7607Z" fill="white"/>
<path d="M54.6566 102.266L55.752 101.181L56.8474 102.266L56.9943 102.118L55.8989 101.035L56.9943 99.9502L56.8474 99.8047L55.752 100.887L54.6566 99.8047L54.5098 99.9502L55.6052 101.035L54.5098 102.118L54.6566 102.266Z" fill="white"/>
<path d="M54.5161 104.991H54.7945L54.6568 104.857L54.5161 104.991Z" fill="white"/>
<path d="M56.8473 104.849L56.8169 104.876H56.8716L56.8473 104.849Z" fill="white"/>
<path d="M50.6668 0.00878906H50.3792L50.5261 0.15429L49.4307 1.23948L49.5775 1.38498L50.6729 0.299791L51.7561 1.4062L51.903 1.2607L50.8076 0.175509L50.9697 0.0148517L50.6668 0.00878906Z" fill="white"/>
<path d="M51.7561 3.97363L50.6607 5.05579L49.5684 3.97363L49.4185 4.11913L50.5139 5.20433L49.4185 6.28649L49.5684 6.43502L50.6607 5.34983L51.7561 6.43502L51.903 6.28649L50.8107 5.20433L51.903 4.11913L51.7561 3.97363Z" fill="white"/>
<path d="M51.7561 9.01758L50.6607 10.0997L49.5684 9.01758L49.4185 9.16308L50.5139 10.2452L49.4185 11.3304L49.5684 11.4759L50.6607 10.3938L51.7561 11.4759L51.903 11.3304L50.8107 10.2452L51.903 9.16308L51.7561 9.01758Z" fill="white"/>
<path d="M51.7561 14.0586L50.6607 15.1438L49.5684 14.0586L49.4185 14.2071L50.5139 15.2893L49.4185 16.3745L49.5684 16.52L50.6607 15.4378L51.7561 16.52L51.903 16.3745L50.8107 15.2893L51.903 14.2071L51.7561 14.0586Z" fill="white"/>
<path d="M51.7561 19.1035L50.6607 20.1887L49.5684 19.1035L49.4185 19.252L50.5139 20.3342L49.4185 21.4194L49.5684 21.5649L50.6607 20.4827L51.7561 21.5649L51.903 21.4194L50.8107 20.3342L51.903 19.252L51.7561 19.1035Z" fill="white"/>
<path d="M51.7561 24.1475L50.6607 25.2327L49.5684 24.1475L49.4185 24.293L50.5139 25.3782L49.4185 26.4633L49.5684 26.6088L50.6607 25.5237L51.7561 26.6088L51.903 26.4633L50.8107 25.3782L51.903 24.293L51.7561 24.1475Z" fill="white"/>
<path d="M51.7561 29.1914L50.6607 30.2766L49.5684 29.1914L49.4185 29.3369L50.5139 30.4221L49.4185 31.5073L49.5684 31.6528L50.6607 30.5676L51.7561 31.6528L51.903 31.5073L50.8107 30.4221L51.903 29.3369L51.7561 29.1914Z" fill="white"/>
<path d="M51.7561 34.2354L50.6607 35.3205L49.5684 34.2354L49.4185 34.3809L50.5139 35.466L49.4185 36.5512L49.5684 36.6967L50.6607 35.6115L51.7561 36.6967L51.903 36.5512L50.8107 35.466L51.903 34.3809L51.7561 34.2354Z" fill="white"/>
<path d="M51.7561 39.2793L50.6607 40.3645L49.5684 39.2793L49.4185 39.4248L50.5139 40.51L49.4185 41.5952L49.5684 41.7407L50.6607 40.6555L51.7561 41.7407L51.903 41.5952L50.8107 40.51L51.903 39.4248L51.7561 39.2793Z" fill="white"/>
<path d="M51.7561 44.3232L50.6607 45.4054L49.5684 44.3232L49.4185 44.4687L50.5139 45.5539L49.4185 46.6361L49.5684 46.7846L50.6607 45.6994L51.7561 46.7846L51.903 46.6361L50.8107 45.5539L51.903 44.4687L51.7561 44.3232Z" fill="white"/>
<path d="M51.7561 49.3672L50.6607 50.4493L49.5684 49.3672L49.4185 49.5127L50.5139 50.5979L49.4185 51.68L49.5684 51.8286L50.6607 50.7434L51.7561 51.8286L51.903 51.68L50.8107 50.5979L51.903 49.5127L51.7561 49.3672Z" fill="white"/>
<path d="M51.7561 54.4111L50.6607 55.4933L49.5684 54.4111L49.4185 54.5566L50.5139 55.6418L49.4185 56.724L49.5684 56.8725L50.6607 55.7873L51.7561 56.8725L51.903 56.724L50.8107 55.6418L51.903 54.5566L51.7561 54.4111Z" fill="white"/>
<path d="M51.7561 59.4521L50.6607 60.5373L49.5684 59.4521L49.4185 59.6007L50.5139 60.6828L49.4185 61.768L49.5684 61.9135L50.6607 60.8314L51.7561 61.9135L51.903 61.768L50.8107 60.6828L51.903 59.6007L51.7561 59.4521Z" fill="white"/>
<path d="M51.7561 64.4961L50.6607 65.5813L49.5684 64.4961L49.4185 64.6446L50.5139 65.7268L49.4185 66.812L49.5684 66.9575L50.6607 65.8753L51.7561 66.9575L51.903 66.812L50.8107 65.7268L51.903 64.6446L51.7561 64.4961Z" fill="white"/>
<path d="M51.7561 69.54L50.6607 70.6252L49.5684 69.54L49.4185 69.6886L50.5139 70.7707L49.4185 71.8559L49.5684 72.0014L50.6607 70.9193L51.7561 72.0014L51.903 71.8559L50.8107 70.7707L51.903 69.6886L51.7561 69.54Z" fill="white"/>
<path d="M51.7561 74.584L50.6607 75.6692L49.5684 74.584L49.4185 74.7295L50.5139 75.8147L49.4185 76.8999L49.5684 77.0454L50.6607 75.9602L51.7561 77.0454L51.903 76.8999L50.8107 75.8147L51.903 74.7295L51.7561 74.584Z" fill="white"/>
<path d="M51.7561 79.6279L50.6607 80.7131L49.5684 79.6279L49.4185 79.7734L50.5139 80.8586L49.4185 81.9438L49.5684 82.0893L50.6607 81.0041L51.7561 82.0893L51.903 81.9438L50.8107 80.8586L51.903 79.7734L51.7561 79.6279Z" fill="white"/>
<path d="M51.7561 84.6719L50.6607 85.754L49.5684 84.6719L49.4185 84.8174L50.5139 85.9026L49.4185 86.9847L49.5684 87.1333L50.6607 86.0481L51.7561 87.1333L51.903 86.9847L50.8107 85.9026L51.903 84.8174L51.7561 84.6719Z" fill="white"/>
<path d="M51.7561 89.7168L50.6607 90.799L49.5684 89.7168L49.4185 89.8623L50.5139 90.9475L49.4185 92.0297L49.5684 92.1782L50.6607 91.093L51.7561 92.1782L51.903 92.0297L50.8107 90.9475L51.903 89.8623L51.7561 89.7168Z" fill="white"/>
<path d="M51.7561 94.7607L50.6607 95.8429L49.5684 94.7607L49.4185 94.9062L50.5139 95.9914L49.4185 97.0736L49.5684 97.2221L50.6607 96.1369L51.7561 97.2221L51.903 97.0736L50.8107 95.9914L51.903 94.9062L51.7561 94.7607Z" fill="white"/>
<path d="M51.7561 99.8047L50.6607 100.887L49.5684 99.8047L49.4185 99.9502L50.5139 101.035L49.4185 102.118L49.5684 102.266L50.6607 101.181L51.7561 102.266L51.903 102.118L50.8107 101.035L51.903 99.9502L51.7561 99.8047Z" fill="white"/>
<path d="M49.5103 104.902H49.6289L49.565 104.839L49.5103 104.902Z" fill="white"/>
<path d="M51.7562 104.849L51.6094 104.994H51.897L51.7562 104.849Z" fill="white"/>
<path d="M46.8115 1.24531L45.9823 0.420898L45.7192 0.454239L46.6646 1.40595L46.8115 1.24531Z" fill="white"/>
<path d="M44.4771 1.40635L45.3765 0.49707C45.2664 0.515256 45.1501 0.524348 45.04 0.539503L44.3271 1.24571L44.4771 1.40635Z" fill="white"/>
<path d="M46.6648 3.97363L45.5694 5.05579L44.4771 3.97363L44.3271 4.11913L45.4226 5.20433L44.3271 6.28649L44.4771 6.43502L45.5694 5.34983L46.6648 6.43502L46.8117 6.28649L45.7193 5.20433L46.8117 4.11913L46.6648 3.97363Z" fill="white"/>
<path d="M46.6648 9.01758L45.5694 10.0997L44.4771 9.01758L44.3271 9.16308L45.4226 10.2452L44.3271 11.3304L44.4771 11.4759L45.5694 10.3938L46.6648 11.4759L46.8117 11.3304L45.7193 10.2452L46.8117 9.16308L46.6648 9.01758Z" fill="white"/>
<path d="M46.6648 14.0586L45.5694 15.1438L44.4771 14.0586L44.3271 14.2071L45.4226 15.2893L44.3271 16.3745L44.4771 16.52L45.5694 15.4378L46.6648 16.52L46.8117 16.3745L45.7193 15.2893L46.8117 14.2071L46.6648 14.0586Z" fill="white"/>
<path d="M46.6648 19.1035L45.5694 20.1887L44.4771 19.1035L44.3271 19.252L45.4226 20.3342L44.3271 21.4194L44.4771 21.5649L45.5694 20.4827L46.6648 21.5649L46.8117 21.4194L45.7193 20.3342L46.8117 19.252L46.6648 19.1035Z" fill="white"/>
<path d="M46.6648 24.1475L45.5694 25.2327L44.4771 24.1475L44.3271 24.293L45.4226 25.3782L44.3271 26.4633L44.4771 26.6088L45.5694 25.5237L46.6648 26.6088L46.8117 26.4633L45.7193 25.3782L46.8117 24.293L46.6648 24.1475Z" fill="white"/>
<path d="M46.6648 29.1914L45.5694 30.2766L44.4771 29.1914L44.3271 29.3369L45.4226 30.4221L44.3271 31.5073L44.4771 31.6528L45.5694 30.5676L46.6648 31.6528L46.8117 31.5073L45.7193 30.4221L46.8117 29.3369L46.6648 29.1914Z" fill="white"/>
<path d="M46.6648 34.2354L45.5694 35.3205L44.4771 34.2354L44.3271 34.3809L45.4226 35.466L44.3271 36.5512L44.4771 36.6967L45.5694 35.6115L46.6648 36.6967L46.8117 36.5512L45.7193 35.466L46.8117 34.3809L46.6648 34.2354Z" fill="white"/>
<path d="M46.6648 39.2793L45.5694 40.3645L44.4771 39.2793L44.3271 39.4248L45.4226 40.51L44.3271 41.5952L44.4771 41.7407L45.5694 40.6555L46.6648 41.7407L46.8117 41.5952L45.7193 40.51L46.8117 39.4248L46.6648 39.2793Z" fill="white"/>
<path d="M46.6648 44.3232L45.5694 45.4054L44.4771 44.3232L44.3271 44.4687L45.4226 45.5539L44.3271 46.6361L44.4771 46.7846L45.5694 45.6994L46.6648 46.7846L46.8117 46.6361L45.7193 45.5539L46.8117 44.4687L46.6648 44.3232Z" fill="white"/>
<path d="M46.6648 49.3672L45.5694 50.4493L44.4771 49.3672L44.3271 49.5127L45.4226 50.5979L44.3271 51.68L44.4771 51.8286L45.5694 50.7434L46.6648 51.8286L46.8117 51.68L45.7193 50.5979L46.8117 49.5127L46.6648 49.3672Z" fill="white"/>
<path d="M46.6648 54.4111L45.5694 55.4933L44.4771 54.4111L44.3271 54.5566L45.4226 55.6418L44.3271 56.724L44.4771 56.8725L45.5694 55.7873L46.6648 56.8725L46.8117 56.724L45.7193 55.6418L46.8117 54.5566L46.6648 54.4111Z" fill="white"/>
<path d="M46.6648 59.4521L45.5694 60.5373L44.4771 59.4521L44.3271 59.6007L45.4226 60.6828L44.3271 61.768L44.4771 61.9135L45.5694 60.8314L46.6648 61.9135L46.8117 61.768L45.7193 60.6828L46.8117 59.6007L46.6648 59.4521Z" fill="white"/>
<path d="M46.6648 64.4961L45.5694 65.5813L44.4771 64.4961L44.3271 64.6446L45.4226 65.7268L44.3271 66.812L44.4771 66.9575L45.5694 65.8753L46.6648 66.9575L46.8117 66.812L45.7193 65.7268L46.8117 64.6446L46.6648 64.4961Z" fill="white"/>
<path d="M46.6648 69.54L45.5694 70.6252L44.4771 69.54L44.3271 69.6886L45.4226 70.7707L44.3271 71.8559L44.4771 72.0014L45.5694 70.9193L46.6648 72.0014L46.8117 71.8559L45.7193 70.7707L46.8117 69.6886L46.6648 69.54Z" fill="white"/>
<path d="M46.6648 74.584L45.5694 75.6692L44.4771 74.584L44.3271 74.7295L45.4226 75.8147L44.3271 76.8999L44.4771 77.0454L45.5694 75.9602L46.6648 77.0454L46.8117 76.8999L45.7193 75.8147L46.8117 74.7295L46.6648 74.584Z" fill="white"/>
<path d="M46.6648 79.6279L45.5694 80.7131L44.4771 79.6279L44.3271 79.7734L45.4226 80.8586L44.3271 81.9438L44.4771 82.0893L45.5694 81.0041L46.6648 82.0893L46.8117 81.9438L45.7193 80.8586L46.8117 79.7734L46.6648 79.6279Z" fill="white"/>
<path d="M46.6648 84.6719L45.5694 85.754L44.4771 84.6719L44.3271 84.8174L45.4226 85.9026L44.3271 86.9847L44.4771 87.1333L45.5694 86.0481L46.6648 87.1333L46.8117 86.9847L45.7193 85.9026L46.8117 84.8174L46.6648 84.6719Z" fill="white"/>
<path d="M46.6648 89.7168L45.5694 90.799L44.4771 89.7168L44.3271 89.8623L45.4226 90.9475L44.3271 92.0297L44.4771 92.1782L45.5694 91.093L46.6648 92.1782L46.8117 92.0297L45.7193 90.9475L46.8117 89.8623L46.6648 89.7168Z" fill="white"/>
<path d="M46.6648 94.7607L45.5694 95.8429L44.4771 94.7607L44.3271 94.9062L45.4226 95.9914L44.3271 97.0736L44.4771 97.2221L45.5694 96.1369L46.6648 97.2221L46.8117 97.0736L45.7193 95.9914L46.8117 94.9062L46.6648 94.7607Z" fill="white"/>
<path d="M46.6648 99.8047L45.5694 100.887L44.4771 99.8047L44.3271 99.9502L45.4226 101.035L44.3271 102.118L44.4771 102.266L45.5694 101.181L46.6648 102.266L46.8117 102.118L45.7193 101.035L46.8117 99.9502L46.6648 99.8047Z" fill="white"/>
<path d="M41.7199 1.24569L41.6434 1.16992L41.4048 1.22448L41.5731 1.39118L41.7199 1.24569Z" fill="white"/>
<path d="M41.573 3.97363L40.4776 5.05579L39.3853 3.97363L39.2354 4.11913L40.3308 5.20433L39.2354 6.28649L39.3853 6.43502L40.4776 5.34983L41.573 6.43502L41.7199 6.28649L40.6276 5.20433L41.7199 4.11913L41.573 3.97363Z" fill="white"/>
<path d="M41.573 9.01758L40.4776 10.0997L39.3853 9.01758L39.2354 9.16308L40.3308 10.2452L39.2354 11.3304L39.3853 11.4759L40.4776 10.3938L41.573 11.4759L41.7199 11.3304L40.6276 10.2452L41.7199 9.16308L41.573 9.01758Z" fill="white"/>
<path d="M41.573 14.0586L40.4776 15.1438L39.3853 14.0586L39.2354 14.2071L40.3308 15.2893L39.2354 16.3745L39.3853 16.52L40.4776 15.4378L41.573 16.52L41.7199 16.3745L40.6276 15.2893L41.7199 14.2071L41.573 14.0586Z" fill="white"/>
<path d="M41.573 19.1035L40.4776 20.1887L39.3853 19.1035L39.2354 19.252L40.3308 20.3342L39.2354 21.4194L39.3853 21.5649L40.4776 20.4827L41.573 21.5649L41.7199 21.4194L40.6276 20.3342L41.7199 19.252L41.573 19.1035Z" fill="white"/>
<path d="M41.573 24.1475L40.4776 25.2327L39.3853 24.1475L39.2354 24.293L40.3308 25.3782L39.2354 26.4633L39.3853 26.6088L40.4776 25.5237L41.573 26.6088L41.7199 26.4633L40.6276 25.3782L41.7199 24.293L41.573 24.1475Z" fill="white"/>
<path d="M41.573 29.1914L40.4776 30.2766L39.3853 29.1914L39.2354 29.3369L40.3308 30.4221L39.2354 31.5073L39.3853 31.6528L40.4776 30.5676L41.573 31.6528L41.7199 31.5073L40.6276 30.4221L41.7199 29.3369L41.573 29.1914Z" fill="white"/>
<path d="M41.573 34.2354L40.4776 35.3205L39.3853 34.2354L39.2354 34.3809L40.3308 35.466L39.2354 36.5512L39.3853 36.6967L40.4776 35.6115L41.573 36.6967L41.7199 36.5512L40.6276 35.466L41.7199 34.3809L41.573 34.2354Z" fill="white"/>
<path d="M41.573 39.2793L40.4776 40.3645L39.3853 39.2793L39.2354 39.4248L40.3308 40.51L39.2354 41.5952L39.3853 41.7407L40.4776 40.6555L41.573 41.7407L41.7199 41.5952L40.6276 40.51L41.7199 39.4248L41.573 39.2793Z" fill="white"/>
<path d="M41.573 44.3232L40.4776 45.4054L39.3853 44.3232L39.2354 44.4687L40.3308 45.5539L39.2354 46.6361L39.3853 46.7846L40.4776 45.6994L41.573 46.7846L41.7199 46.6361L40.6276 45.5539L41.7199 44.4687L41.573 44.3232Z" fill="white"/>
<path d="M41.573 49.3672L40.4776 50.4493L39.3853 49.3672L39.2354 49.5127L40.3308 50.5979L39.2354 51.68L39.3853 51.8286L40.4776 50.7434L41.573 51.8286L41.7199 51.68L40.6276 50.5979L41.7199 49.5127L41.573 49.3672Z" fill="white"/>
<path d="M41.573 54.4111L40.4776 55.4933L39.3853 54.4111L39.2354 54.5566L40.3308 55.6418L39.2354 56.724L39.3853 56.8725L40.4776 55.7873L41.573 56.8725L41.7199 56.724L40.6276 55.6418L41.7199 54.5566L41.573 54.4111Z" fill="white"/>
<path d="M41.573 59.4521L40.4776 60.5373L39.3853 59.4521L39.2354 59.6007L40.3308 60.6828L39.2354 61.768L39.3853 61.9135L40.4776 60.8314L41.573 61.9135L41.7199 61.768L40.6276 60.6828L41.7199 59.6007L41.573 59.4521Z" fill="white"/>
<path d="M41.573 64.4961L40.4776 65.5813L39.3853 64.4961L39.2354 64.6446L40.3308 65.7268L39.2354 66.812L39.3853 66.9575L40.4776 65.8753L41.573 66.9575L41.7199 66.812L40.6276 65.7268L41.7199 64.6446L41.573 64.4961Z" fill="white"/>
<path d="M41.573 69.54L40.4776 70.6252L39.3853 69.54L39.2354 69.6886L40.3308 70.7707L39.2354 71.8559L39.3853 72.0014L40.4776 70.9193L41.573 72.0014L41.7199 71.8559L40.6276 70.7707L41.7199 69.6886L41.573 69.54Z" fill="white"/>
<path d="M41.573 74.584L40.4776 75.6692L39.3853 74.584L39.2354 74.7295L40.3308 75.8147L39.2354 76.8999L39.3853 77.0454L40.4776 75.9602L41.573 77.0454L41.7199 76.8999L40.6276 75.8147L41.7199 74.7295L41.573 74.584Z" fill="white"/>
<path d="M41.573 79.6279L40.4776 80.7131L39.3853 79.6279L39.2354 79.7734L40.3308 80.8586L39.2354 81.9438L39.3853 82.0893L40.4776 81.0041L41.573 82.0893L41.7199 81.9438L40.6276 80.8586L41.7199 79.7734L41.573 79.6279Z" fill="white"/>
<path d="M41.573 84.6719L40.4776 85.754L39.3853 84.6719L39.2354 84.8174L40.3308 85.9026L39.2354 86.9847L39.3853 87.1333L40.4776 86.0481L41.573 87.1333L41.7199 86.9847L40.6276 85.9026L41.7199 84.8174L41.573 84.6719Z" fill="white"/>
<path d="M41.573 89.7168L40.4776 90.799L39.3853 89.7168L39.2354 89.8623L40.3308 90.9475L39.2354 92.0297L39.3853 92.1782L40.4776 91.093L41.573 92.1782L41.7199 92.0297L40.6276 90.9475L41.7199 89.8623L41.573 89.7168Z" fill="white"/>
<path d="M41.573 94.7607L40.4776 95.8429L39.3853 94.7607L39.2354 94.9062L40.3308 95.9914L39.2354 97.0736L39.3853 97.2221L40.4776 96.1369L41.573 97.2221L41.7199 97.0736L40.6276 95.9914L41.7199 94.9062L41.573 94.7607Z" fill="white"/>
<path d="M41.573 99.8047L40.4776 100.887L39.3853 99.8047L39.2354 99.9502L40.3308 101.035L39.2354 102.118L39.3853 102.266L40.4776 101.181L41.573 102.266L41.7199 102.118L40.6276 101.035L41.7199 99.9502L41.573 99.8047Z" fill="white"/>
<path d="M36.4817 3.97363L35.3863 5.05579L34.294 3.97363L34.144 4.11913L35.2394 5.20433L34.144 6.28649L34.294 6.43502L35.3863 5.34983L36.4817 6.43502L36.6286 6.28649L35.5362 5.20433L36.6286 4.11913L36.4817 3.97363Z" fill="white"/>
<path d="M36.4817 9.01758L35.3863 10.0997L34.294 9.01758L34.144 9.16308L35.2394 10.2452L34.144 11.3304L34.294 11.4759L35.3863 10.3938L36.4817 11.4759L36.6286 11.3304L35.5362 10.2452L36.6286 9.16308L36.4817 9.01758Z" fill="white"/>
<path d="M36.4817 14.0586L35.3863 15.1438L34.294 14.0586L34.144 14.2071L35.2394 15.2893L34.144 16.3745L34.294 16.52L35.3863 15.4378L36.4817 16.52L36.6286 16.3745L35.5362 15.2893L36.6286 14.2071L36.4817 14.0586Z" fill="white"/>
<path d="M36.4817 19.1035L35.3863 20.1887L34.294 19.1035L34.144 19.252L35.2394 20.3342L34.144 21.4194L34.294 21.5649L35.3863 20.4827L36.4817 21.5649L36.6286 21.4194L35.5362 20.3342L36.6286 19.252L36.4817 19.1035Z" fill="white"/>
<path d="M36.4817 24.1475L35.3863 25.2327L34.294 24.1475L34.144 24.293L35.2394 25.3782L34.144 26.4633L34.294 26.6088L35.3863 25.5237L36.4817 26.6088L36.6286 26.4633L35.5362 25.3782L36.6286 24.293L36.4817 24.1475Z" fill="white"/>
<path d="M36.4817 29.1914L35.3863 30.2766L34.294 29.1914L34.144 29.3369L35.2394 30.4221L34.144 31.5073L34.294 31.6528L35.3863 30.5676L36.4817 31.6528L36.6286 31.5073L35.5362 30.4221L36.6286 29.3369L36.4817 29.1914Z" fill="white"/>
<path d="M36.4817 34.2354L35.3863 35.3205L34.294 34.2354L34.144 34.3809L35.2394 35.466L34.144 36.5512L34.294 36.6967L35.3863 35.6115L36.4817 36.6967L36.6286 36.5512L35.5362 35.466L36.6286 34.3809L36.4817 34.2354Z" fill="white"/>
<path d="M36.4817 39.2793L35.3863 40.3645L34.294 39.2793L34.144 39.4248L35.2394 40.51L34.144 41.5952L34.294 41.7407L35.3863 40.6555L36.4817 41.7407L36.6286 41.5952L35.5362 40.51L36.6286 39.4248L36.4817 39.2793Z" fill="white"/>
<path d="M36.4817 44.3232L35.3863 45.4054L34.294 44.3232L34.144 44.4687L35.2394 45.5539L34.144 46.6361L34.294 46.7846L35.3863 45.6994L36.4817 46.7846L36.6286 46.6361L35.5362 45.5539L36.6286 44.4687L36.4817 44.3232Z" fill="white"/>
<path d="M36.4817 49.3672L35.3863 50.4493L34.294 49.3672L34.144 49.5127L35.2394 50.5979L34.144 51.68L34.294 51.8286L35.3863 50.7434L36.4817 51.8286L36.6286 51.68L35.5362 50.5979L36.6286 49.5127L36.4817 49.3672Z" fill="white"/>
<path d="M36.4817 54.4111L35.3863 55.4933L34.294 54.4111L34.144 54.5566L35.2394 55.6418L34.144 56.724L34.294 56.8725L35.3863 55.7873L36.4817 56.8725L36.6286 56.724L35.5362 55.6418L36.6286 54.5566L36.4817 54.4111Z" fill="white"/>
<path d="M36.4817 59.4521L35.3863 60.5373L34.294 59.4521L34.144 59.6007L35.2394 60.6828L34.144 61.768L34.294 61.9135L35.3863 60.8314L36.4817 61.9135L36.6286 61.768L35.5362 60.6828L36.6286 59.6007L36.4817 59.4521Z" fill="white"/>
<path d="M36.4817 64.4961L35.3863 65.5813L34.294 64.4961L34.144 64.6446L35.2394 65.7268L34.144 66.812L34.294 66.9575L35.3863 65.8753L36.4817 66.9575L36.6286 66.812L35.5362 65.7268L36.6286 64.6446L36.4817 64.4961Z" fill="white"/>
<path d="M36.4817 69.54L35.3863 70.6252L34.294 69.54L34.144 69.6886L35.2394 70.7707L34.144 71.8559L34.294 72.0014L35.3863 70.9193L36.4817 72.0014L36.6286 71.8559L35.5362 70.7707L36.6286 69.6886L36.4817 69.54Z" fill="white"/>
<path d="M36.4817 74.584L35.3863 75.6692L34.294 74.584L34.144 74.7295L35.2394 75.8147L34.144 76.8999L34.294 77.0454L35.3863 75.9602L36.4817 77.0454L36.6286 76.8999L35.5362 75.8147L36.6286 74.7295L36.4817 74.584Z" fill="white"/>
<path d="M36.4817 79.6279L35.3863 80.7131L34.294 79.6279L34.144 79.7734L35.2394 80.8586L34.144 81.9438L34.294 82.0893L35.3863 81.0041L36.4817 82.0893L36.6286 81.9438L35.5362 80.8586L36.6286 79.7734L36.4817 79.6279Z" fill="white"/>
<path d="M36.4817 84.6719L35.3863 85.754L34.294 84.6719L34.144 84.8174L35.2394 85.9026L34.144 86.9847L34.294 87.1333L35.3863 86.0481L36.4817 87.1333L36.6286 86.9847L35.5362 85.9026L36.6286 84.8174L36.4817 84.6719Z" fill="white"/>
<path d="M36.4817 89.7168L35.3863 90.799L34.294 89.7168L34.144 89.8623L35.2394 90.9475L34.144 92.0297L34.294 92.1782L35.3863 91.093L36.4817 92.1782L36.6286 92.0297L35.5362 90.9475L36.6286 89.8623L36.4817 89.7168Z" fill="white"/>
<path d="M36.4817 94.7607L35.3863 95.8429L34.294 94.7607L34.144 94.9062L35.2394 95.9914L34.144 97.0736L34.294 97.2221L35.3863 96.1369L36.4817 97.2221L36.6286 97.0736L35.5362 95.9914L36.6286 94.9062L36.4817 94.7607Z" fill="white"/>
<path d="M36.4816 102.266L36.6285 102.121L35.5361 101.035L36.6285 99.9502L36.4816 99.8047L35.3892 100.89L34.2969 99.8047L34.147 99.9502L35.2424 101.035L34.5203 101.742C34.5937 101.766 34.661 101.796 34.7345 101.824L35.3862 101.175L36.4816 102.266Z" fill="white"/>
<path d="M29.0557 6.29033L29.2025 6.43583L30.2979 5.3476L31.3903 6.4328L31.5402 6.2873L30.4448 5.2021L30.9435 4.70801C30.763 4.78985 30.5825 4.86563 30.405 4.95051L30.2979 5.0566L30.2551 5.01417C30.1878 5.04751 30.1205 5.07479 30.0532 5.1051L30.148 5.2021L29.0557 6.29033Z" fill="white"/>
<path d="M31.3904 9.01758L30.2981 10.0997L29.2027 9.01758L29.0527 9.16308L30.1481 10.2452L29.0527 11.3304L29.2027 11.4759L30.2981 10.3938L31.3904 11.4759L31.5403 11.3304L30.4449 10.2452L31.5403 9.16308L31.3904 9.01758Z" fill="white"/>
<path d="M31.3904 14.0586L30.2981 15.1438L29.2027 14.0586L29.0527 14.2071L30.1481 15.2893L29.0527 16.3745L29.2027 16.52L30.2981 15.4378L31.3904 16.52L31.5403 16.3745L30.4449 15.2893L31.5403 14.2071L31.3904 14.0586Z" fill="white"/>
<path d="M31.3904 19.1035L30.2981 20.1887L29.2027 19.1035L29.0527 19.252L30.1481 20.3342L29.0527 21.4194L29.2027 21.5649L30.2981 20.4827L31.3904 21.5649L31.5403 21.4194L30.4449 20.3342L31.5403 19.252L31.3904 19.1035Z" fill="white"/>
<path d="M31.3904 24.1475L30.2981 25.2327L29.2027 24.1475L29.0527 24.293L30.1481 25.3782L29.0527 26.4633L29.2027 26.6088L30.2981 25.5237L31.3904 26.6088L31.5403 26.4633L30.4449 25.3782L31.5403 24.293L31.3904 24.1475Z" fill="white"/>
<path d="M31.3904 29.1914L30.2981 30.2766L29.2027 29.1914L29.0527 29.3369L30.1481 30.4221L29.0527 31.5073L29.2027 31.6528L30.2981 30.5676L31.3904 31.6528L31.5403 31.5073L30.4449 30.4221L31.5403 29.3369L31.3904 29.1914Z" fill="white"/>
<path d="M31.3904 34.2354L30.2981 35.3205L29.2027 34.2354L29.0527 34.3809L30.1481 35.466L29.0527 36.5512L29.2027 36.6967L30.2981 35.6115L31.3904 36.6967L31.5403 36.5512L30.4449 35.466L31.5403 34.3809L31.3904 34.2354Z" fill="white"/>
<path d="M31.3904 39.2793L30.2981 40.3645L29.2027 39.2793L29.0527 39.4248L30.1481 40.51L29.0527 41.5952L29.2027 41.7407L30.2981 40.6555L31.3904 41.7407L31.5403 41.5952L30.4449 40.51L31.5403 39.4248L31.3904 39.2793Z" fill="white"/>
<path d="M31.3904 44.3232L30.2981 45.4054L29.2027 44.3232L29.0527 44.4687L30.1481 45.5539L29.0527 46.6361L29.2027 46.7846L30.2981 45.6994L31.3904 46.7846L31.5403 46.6361L30.4449 45.5539L31.5403 44.4687L31.3904 44.3232Z" fill="white"/>
<path d="M31.3904 49.3672L30.2981 50.4493L29.2027 49.3672L29.0527 49.5127L30.1481 50.5979L29.0527 51.68L29.2027 51.8286L30.2981 50.7434L31.3904 51.8286L31.5403 51.68L30.4449 50.5979L31.5403 49.5127L31.3904 49.3672Z" fill="white"/>
<path d="M31.3904 54.4111L30.2981 55.4933L29.2027 54.4111L29.0527 54.5566L30.1481 55.6418L29.0527 56.724L29.2027 56.8725L30.2981 55.7873L31.3904 56.8725L31.5403 56.724L30.4449 55.6418L31.5403 54.5566L31.3904 54.4111Z" fill="white"/>
<path d="M31.3904 59.4521L30.2981 60.5373L29.2027 59.4521L29.0527 59.6007L30.1481 60.6828L29.0527 61.768L29.2027 61.9135L30.2981 60.8314L31.3904 61.9135L31.5403 61.768L30.4449 60.6828L31.5403 59.6007L31.3904 59.4521Z" fill="white"/>
<path d="M31.3904 64.4961L30.2981 65.5813L29.2027 64.4961L29.0527 64.6446L30.1481 65.7268L29.0527 66.812L29.2027 66.9575L30.2981 65.8753L31.3904 66.9575L31.5403 66.812L30.4449 65.7268L31.5403 64.6446L31.3904 64.4961Z" fill="white"/>
<path d="M31.3904 69.54L30.2981 70.6252L29.2027 69.54L29.0527 69.6886L30.1481 70.7707L29.0527 71.8559L29.2027 72.0014L30.2981 70.9193L31.3904 72.0014L31.5403 71.8559L30.4449 70.7707L31.5403 69.6886L31.3904 69.54Z" fill="white"/>
<path d="M31.3904 74.584L30.2981 75.6692L29.2027 74.584L29.0527 74.7295L30.1481 75.8147L29.0527 76.8999L29.2027 77.0454L30.2981 75.9602L31.3904 77.0454L31.5403 76.8999L30.4449 75.8147L31.5403 74.7295L31.3904 74.584Z" fill="white"/>
<path d="M31.3904 79.6279L30.2981 80.7131L29.2027 79.6279L29.0527 79.7734L30.1481 80.8586L29.0527 81.9438L29.2027 82.0893L30.2981 81.0041L31.3904 82.0893L31.5403 81.9438L30.4449 80.8586L31.5403 79.7734L31.3904 79.6279Z" fill="white"/>
<path d="M31.3904 84.6719L30.2981 85.754L29.2027 84.6719L29.0527 84.8174L30.1481 85.9026L29.0527 86.9847L29.2027 87.1333L30.2981 86.0481L31.3904 87.1333L31.5403 86.9847L30.4449 85.9026L31.5403 84.8174L31.3904 84.6719Z" fill="white"/>
<path d="M31.3904 89.7168L30.2981 90.799L29.2027 89.7168L29.0527 89.8623L30.1481 90.9475L29.0527 92.0297L29.2027 92.1782L30.2981 91.093L31.3904 92.1782L31.5403 92.0297L30.4449 90.9475L31.5403 89.8623L31.3904 89.7168Z" fill="white"/>
<path d="M31.3904 94.7607L30.2981 95.8429L29.2027 94.7607L29.0527 94.9062L30.1481 95.9914L29.0527 97.0736L29.2027 97.2221L30.2981 96.1369L31.3904 97.2221L31.5403 97.0736L30.4449 95.9914L31.5403 94.9062L31.3904 94.7607Z" fill="white"/>
<path d="M31.3902 99.8047L30.9282 100.262L31.1332 100.353L31.5401 99.9502L31.3902 99.8047Z" fill="white"/>
<path d="M26.299 9.01758L25.2066 10.0997L24.1112 9.01758L23.9644 9.16308L25.0567 10.2452L23.9644 11.3304L24.1112 11.4759L25.2066 10.3938L26.299 11.4759L26.4489 11.3304L25.3535 10.2452L26.4489 9.16308L26.299 9.01758Z" fill="white"/>
<path d="M26.299 14.0586L25.2066 15.1438L24.1112 14.0586L23.9644 14.2071L25.0567 15.2893L23.9644 16.3745L24.1112 16.52L25.2066 15.4378L26.299 16.52L26.4489 16.3745L25.3535 15.2893L26.4489 14.2071L26.299 14.0586Z" fill="white"/>
<path d="M26.299 19.1035L25.2066 20.1887L24.1112 19.1035L23.9644 19.252L25.0567 20.3342L23.9644 21.4194L24.1112 21.5649L25.2066 20.4827L26.299 21.5649L26.4489 21.4194L25.3535 20.3342L26.4489 19.252L26.299 19.1035Z" fill="white"/>
<path d="M26.299 24.1475L25.2066 25.2327L24.1112 24.1475L23.9644 24.293L25.0567 25.3782L23.9644 26.4633L24.1112 26.6088L25.2066 25.5237L26.299 26.6088L26.4489 26.4633L25.3535 25.3782L26.4489 24.293L26.299 24.1475Z" fill="white"/>
<path d="M26.299 29.1914L25.2066 30.2766L24.1112 29.1914L23.9644 29.3369L25.0567 30.4221L23.9644 31.5073L24.1112 31.6528L25.2066 30.5676L26.299 31.6528L26.4489 31.5073L25.3535 30.4221L26.4489 29.3369L26.299 29.1914Z" fill="white"/>
<path d="M26.299 34.2354L25.2066 35.3205L24.1112 34.2354L23.9644 34.3809L25.0567 35.466L23.9644 36.5512L24.1112 36.6967L25.2066 35.6115L26.299 36.6967L26.4489 36.5512L25.3535 35.466L26.4489 34.3809L26.299 34.2354Z" fill="white"/>
<path d="M26.299 39.2793L25.2066 40.3645L24.1112 39.2793L23.9644 39.4248L25.0567 40.51L23.9644 41.5952L24.1112 41.7407L25.2066 40.6555L26.299 41.7407L26.4489 41.5952L25.3535 40.51L26.4489 39.4248L26.299 39.2793Z" fill="white"/>
<path d="M26.299 44.3232L25.2066 45.4054L24.1112 44.3232L23.9644 44.4687L25.0567 45.5539L23.9644 46.6361L24.1112 46.7846L25.2066 45.6994L26.299 46.7846L26.4489 46.6361L25.3535 45.5539L26.4489 44.4687L26.299 44.3232Z" fill="white"/>
<path d="M26.299 49.3672L25.2066 50.4493L24.1112 49.3672L23.9644 49.5127L25.0567 50.5979L23.9644 51.68L24.1112 51.8286L25.2066 50.7434L26.299 51.8286L26.4489 51.68L25.3535 50.5979L26.4489 49.5127L26.299 49.3672Z" fill="white"/>
<path d="M26.299 54.4111L25.2066 55.4933L24.1112 54.4111L23.9644 54.5566L25.0567 55.6418L23.9644 56.724L24.1112 56.8725L25.2066 55.7873L26.299 56.8725L26.4489 56.724L25.3535 55.6418L26.4489 54.5566L26.299 54.4111Z" fill="white"/>
<path d="M26.299 59.4521L25.2066 60.5373L24.1112 59.4521L23.9644 59.6007L25.0567 60.6828L23.9644 61.768L24.1112 61.9135L25.2066 60.8314L26.299 61.9135L26.4489 61.768L25.3535 60.6828L26.4489 59.6007L26.299 59.4521Z" fill="white"/>
<path d="M26.299 64.4961L25.2066 65.5813L24.1112 64.4961L23.9644 64.6446L25.0567 65.7268L23.9644 66.812L24.1112 66.9575L25.2066 65.8753L26.299 66.9575L26.4489 66.812L25.3535 65.7268L26.4489 64.6446L26.299 64.4961Z" fill="white"/>
<path d="M26.299 69.54L25.2066 70.6252L24.1112 69.54L23.9644 69.6886L25.0567 70.7707L23.9644 71.8559L24.1112 72.0014L25.2066 70.9193L26.299 72.0014L26.4489 71.8559L25.3535 70.7707L26.4489 69.6886L26.299 69.54Z" fill="white"/>
<path d="M26.299 74.584L25.2066 75.6692L24.1112 74.584L23.9644 74.7295L25.0567 75.8147L23.9644 76.8999L24.1112 77.0454L25.2066 75.9602L26.299 77.0454L26.4489 76.8999L25.3535 75.8147L26.4489 74.7295L26.299 74.584Z" fill="white"/>
<path d="M26.299 79.6279L25.2066 80.7131L24.1112 79.6279L23.9644 79.7734L25.0567 80.8586L23.9644 81.9438L24.1112 82.0893L25.2066 81.0041L26.299 82.0893L26.4489 81.9438L25.3535 80.8586L26.4489 79.7734L26.299 79.6279Z" fill="white"/>
<path d="M26.299 84.6719L25.2066 85.754L24.1112 84.6719L23.9644 84.8174L25.0567 85.9026L23.9644 86.9847L24.1112 87.1333L25.2066 86.0481L26.299 87.1333L26.4489 86.9847L25.3535 85.9026L26.4489 84.8174L26.299 84.6719Z" fill="white"/>
<path d="M26.299 89.7168L25.2066 90.799L24.1112 89.7168L23.9644 89.8623L25.0567 90.9475L23.9644 92.0297L24.1112 92.1782L25.2066 91.093L26.299 92.1782L26.4489 92.0297L25.3535 90.9475L26.4489 89.8623L26.299 89.7168Z" fill="white"/>
<path d="M26.299 97.2215L26.4489 97.076L25.3535 95.9817L26.4489 94.8965L26.299 94.751L25.2066 95.8362L24.1112 94.7692L23.9644 94.9147L25.0567 95.9999L24.3499 96.7031L24.5304 96.8153L25.2066 96.1454L26.299 97.2215Z" fill="white"/>
<path d="M21.3571 11.3305L20.7819 10.7637L20.6167 10.891L21.2072 11.479L21.3571 11.3305Z" fill="white"/>
<path d="M21.2072 14.0586L20.1148 15.1438L19.0194 14.0586L18.8726 14.2071L19.9649 15.2893L18.8726 16.3745L19.0194 16.52L20.1148 15.4378L21.2072 16.52L21.3571 16.3745L20.2617 15.2893L21.3571 14.2071L21.2072 14.0586Z" fill="white"/>
<path d="M21.2072 19.1035L20.1148 20.1887L19.0194 19.1035L18.8726 19.252L19.9649 20.3342L18.8726 21.4194L19.0194 21.5649L20.1148 20.4827L21.2072 21.5649L21.3571 21.4194L20.2617 20.3342L21.3571 19.252L21.2072 19.1035Z" fill="white"/>
<path d="M21.2072 24.1475L20.1148 25.2327L19.0194 24.1475L18.8726 24.293L19.9649 25.3782L18.8726 26.4633L19.0194 26.6088L20.1148 25.5237L21.2072 26.6088L21.3571 26.4633L20.2617 25.3782L21.3571 24.293L21.2072 24.1475Z" fill="white"/>
<path d="M21.2072 29.1914L20.1148 30.2766L19.0194 29.1914L18.8726 29.3369L19.9649 30.4221L18.8726 31.5073L19.0194 31.6528L20.1148 30.5676L21.2072 31.6528L21.3571 31.5073L20.2617 30.4221L21.3571 29.3369L21.2072 29.1914Z" fill="white"/>
<path d="M21.2072 34.2354L20.1148 35.3205L19.0194 34.2354L18.8726 34.3809L19.9649 35.466L18.8726 36.5512L19.0194 36.6967L20.1148 35.6115L21.2072 36.6967L21.3571 36.5512L20.2617 35.466L21.3571 34.3809L21.2072 34.2354Z" fill="white"/>
<path d="M21.2072 39.2793L20.1148 40.3645L19.0194 39.2793L18.8726 39.4248L19.9649 40.51L18.8726 41.5952L19.0194 41.7407L20.1148 40.6555L21.2072 41.7407L21.3571 41.5952L20.2617 40.51L21.3571 39.4248L21.2072 39.2793Z" fill="white"/>
<path d="M21.2072 44.3232L20.1148 45.4054L19.0194 44.3232L18.8726 44.4687L19.9649 45.5539L18.8726 46.6361L19.0194 46.7846L20.1148 45.6994L21.2072 46.7846L21.3571 46.6361L20.2617 45.5539L21.3571 44.4687L21.2072 44.3232Z" fill="white"/>
<path d="M21.2072 49.3672L20.1148 50.4493L19.0194 49.3672L18.8726 49.5127L19.9649 50.5979L18.8726 51.68L19.0194 51.8286L20.1148 50.7434L21.2072 51.8286L21.3571 51.68L20.2617 50.5979L21.3571 49.5127L21.2072 49.3672Z" fill="white"/>
<path d="M21.2072 54.4111L20.1148 55.4933L19.0194 54.4111L18.8726 54.5566L19.9649 55.6418L18.8726 56.724L19.0194 56.8725L20.1148 55.7873L21.2072 56.8725L21.3571 56.724L20.2617 55.6418L21.3571 54.5566L21.2072 54.4111Z" fill="white"/>
<path d="M21.2072 59.4521L20.1148 60.5373L19.0194 59.4521L18.8726 59.6007L19.9649 60.6828L18.8726 61.768L19.0194 61.9135L20.1148 60.8314L21.2072 61.9135L21.3571 61.768L20.2617 60.6828L21.3571 59.6007L21.2072 59.4521Z" fill="white"/>
<path d="M21.2072 64.4961L20.1148 65.5813L19.0194 64.4961L18.8726 64.6446L19.9649 65.7268L18.8726 66.812L19.0194 66.9575L20.1148 65.8753L21.2072 66.9575L21.3571 66.812L20.2617 65.7268L21.3571 64.6446L21.2072 64.4961Z" fill="white"/>
<path d="M21.2072 69.54L20.1148 70.6252L19.0194 69.54L18.8726 69.6886L19.9649 70.7707L18.8726 71.8559L19.0194 72.0014L20.1148 70.9193L21.2072 72.0014L21.3571 71.8559L20.2617 70.7707L21.3571 69.6886L21.2072 69.54Z" fill="white"/>
<path d="M21.2072 74.584L20.1148 75.6692L19.0194 74.584L18.8726 74.7295L19.9649 75.8147L18.8726 76.8999L19.0194 77.0454L20.1148 75.9602L21.2072 77.0454L21.3571 76.8999L20.2617 75.8147L21.3571 74.7295L21.2072 74.584Z" fill="white"/>
<path d="M21.2072 79.6279L20.1148 80.7131L19.0194 79.6279L18.8726 79.7734L19.9649 80.8586L18.8726 81.9438L19.0194 82.0893L20.1148 81.0041L21.2072 82.0893L21.3571 81.9438L20.2617 80.8586L21.3571 79.7734L21.2072 79.6279Z" fill="white"/>
<path d="M21.2072 84.6719L20.1148 85.754L19.0194 84.6719L18.8726 84.8174L19.9649 85.9026L18.8726 86.9847L19.0194 87.1333L20.1148 86.0481L21.2072 87.1333L21.3571 86.9847L20.2617 85.9026L21.3571 84.8174L21.2072 84.6719Z" fill="white"/>
<path d="M21.2072 89.7168L20.1148 90.799L19.0194 89.7168L18.8726 89.8623L19.9649 90.9475L18.8726 92.0297L19.0194 92.1782L20.1148 91.093L21.2072 92.1782L21.3571 92.0297L20.2617 90.9475L21.3571 89.8623L21.2072 89.7168Z" fill="white"/>
<path d="M16.2657 16.3751L15.3479 15.4658C15.2989 15.5173 15.2531 15.5689 15.2041 15.6174L16.1219 16.5266L16.2657 16.3751Z" fill="white"/>
<path d="M16.1159 19.1035L15.0235 20.1887L13.9281 19.1035L13.7812 19.252L14.8767 20.3342L13.7812 21.4194L13.9281 21.5649L15.0235 20.4827L16.1159 21.5649L16.2658 21.4194L15.1704 20.3342L16.2658 19.252L16.1159 19.1035Z" fill="white"/>
<path d="M16.1159 24.1475L15.0235 25.2327L13.9281 24.1475L13.7812 24.293L14.8767 25.3782L13.7812 26.4633L13.9281 26.6088L15.0235 25.5237L16.1159 26.6088L16.2658 26.4633L15.1704 25.3782L16.2658 24.293L16.1159 24.1475Z" fill="white"/>
<path d="M16.1159 29.1914L15.0235 30.2766L13.9281 29.1914L13.7812 29.3369L14.8767 30.4221L13.7812 31.5073L13.9281 31.6528L15.0235 30.5676L16.1159 31.6528L16.2658 31.5073L15.1704 30.4221L16.2658 29.3369L16.1159 29.1914Z" fill="white"/>
<path d="M16.1159 34.2354L15.0235 35.3205L13.9281 34.2354L13.7812 34.3809L14.8767 35.466L13.7812 36.5512L13.9281 36.6967L15.0235 35.6115L16.1159 36.6967L16.2658 36.5512L15.1704 35.466L16.2658 34.3809L16.1159 34.2354Z" fill="white"/>
<path d="M16.1159 39.2793L15.0235 40.3645L13.9281 39.2793L13.7812 39.4248L14.8767 40.51L13.7812 41.5952L13.9281 41.7407L15.0235 40.6555L16.1159 41.7407L16.2658 41.5952L15.1704 40.51L16.2658 39.4248L16.1159 39.2793Z" fill="white"/>
<path d="M16.1159 44.3232L15.0235 45.4054L13.9281 44.3232L13.7812 44.4687L14.8767 45.5539L13.7812 46.6361L13.9281 46.7846L15.0235 45.6994L16.1159 46.7846L16.2658 46.6361L15.1704 45.5539L16.2658 44.4687L16.1159 44.3232Z" fill="white"/>
<path d="M16.1159 49.3672L15.0235 50.4493L13.9281 49.3672L13.7812 49.5127L14.8767 50.5979L13.7812 51.68L13.9281 51.8286L15.0235 50.7434L16.1159 51.8286L16.2658 51.68L15.1704 50.5979L16.2658 49.5127L16.1159 49.3672Z" fill="white"/>
<path d="M16.1159 54.4111L15.0235 55.4933L13.9281 54.4111L13.7812 54.5566L14.8767 55.6418L13.7812 56.724L13.9281 56.8725L15.0235 55.7873L16.1159 56.8725L16.2658 56.724L15.1704 55.6418L16.2658 54.5566L16.1159 54.4111Z" fill="white"/>
<path d="M16.1159 59.4521L15.0235 60.5373L13.9281 59.4521L13.7812 59.6007L14.8767 60.6828L13.7812 61.768L13.9281 61.9135L15.0235 60.8314L16.1159 61.9135L16.2658 61.768L15.1704 60.6828L16.2658 59.6007L16.1159 59.4521Z" fill="white"/>
<path d="M16.1159 64.4961L15.0235 65.5813L13.9281 64.4961L13.7812 64.6446L14.8767 65.7268L13.7812 66.812L13.9281 66.9575L15.0235 65.8753L16.1159 66.9575L16.2658 66.812L15.1704 65.7268L16.2658 64.6446L16.1159 64.4961Z" fill="white"/>
<path d="M16.1159 69.54L15.0235 70.6252L13.9281 69.54L13.7812 69.6886L14.8767 70.7707L13.7812 71.8559L13.9281 72.0014L15.0235 70.9193L16.1159 72.0014L16.2658 71.8559L15.1704 70.7707L16.2658 69.6886L16.1159 69.54Z" fill="white"/>
<path d="M16.1159 74.584L15.0235 75.6692L13.9281 74.584L13.7812 74.7295L14.8767 75.8147L13.7812 76.8999L13.9281 77.0454L15.0235 75.9602L16.1159 77.0454L16.2658 76.8999L15.1704 75.8147L16.2658 74.7295L16.1159 74.584Z" fill="white"/>
<path d="M16.1159 79.6279L15.0235 80.7131L13.9281 79.6279L13.7812 79.7734L14.8767 80.8586L13.7812 81.9438L13.9281 82.0893L15.0235 81.0041L16.1159 82.0893L16.2658 81.9438L15.1704 80.8586L16.2658 79.7734L16.1159 79.6279Z" fill="white"/>
<path d="M16.1159 84.6719L15.0235 85.754L13.9281 84.6719L13.7812 84.8174L14.8767 85.9026L13.7812 86.9847L13.9281 87.1333L15.0235 86.0481L16.1159 87.1333L16.2658 86.9847L15.1704 85.9026L16.2658 84.8174L16.1159 84.6719Z" fill="white"/>
<path d="M16.1129 89.7168L15.8467 89.9775L15.9997 90.1229L16.2597 89.8623L16.1129 89.7168Z" fill="white"/>
<path d="M11.1744 21.4124L10.6329 20.876C10.5901 20.9336 10.5442 20.9851 10.5044 21.0396L11.0276 21.561L11.1744 21.4124Z" fill="white"/>
<path d="M11.0276 24.1475L9.93221 25.2327L8.83681 24.1475L8.68994 24.293L9.78534 25.3782L8.68994 26.4633L8.83681 26.6088L9.93221 25.5237L11.0276 26.6088L11.1745 26.4633L10.0791 25.3782L11.1745 24.293L11.0276 24.1475Z" fill="white"/>
<path d="M11.0276 29.1914L9.93221 30.2766L8.83681 29.1914L8.68994 29.3369L9.78534 30.4221L8.68994 31.5073L8.83681 31.6528L9.93221 30.5676L11.0276 31.6528L11.1745 31.5073L10.0791 30.4221L11.1745 29.3369L11.0276 29.1914Z" fill="white"/>
<path d="M11.0276 34.2354L9.93221 35.3205L8.83681 34.2354L8.68994 34.3809L9.78534 35.466L8.68994 36.5512L8.83681 36.6967L9.93221 35.6115L11.0276 36.6967L11.1745 36.5512L10.0791 35.466L11.1745 34.3809L11.0276 34.2354Z" fill="white"/>
<path d="M11.0276 39.2793L9.93221 40.3645L8.83681 39.2793L8.68994 39.4248L9.78534 40.51L8.68994 41.5952L8.83681 41.7407L9.93221 40.6555L11.0276 41.7407L11.1745 41.5952L10.0791 40.51L11.1745 39.4248L11.0276 39.2793Z" fill="white"/>
<path d="M11.0276 44.3232L9.93221 45.4054L8.83681 44.3232L8.68994 44.4687L9.78534 45.5539L8.68994 46.6361L8.83681 46.7846L9.93221 45.6994L11.0276 46.7846L11.1745 46.6361L10.0791 45.5539L11.1745 44.4687L11.0276 44.3232Z" fill="white"/>
<path d="M11.0276 49.3672L9.93221 50.4493L8.83681 49.3672L8.68994 49.5127L9.78534 50.5979L8.68994 51.68L8.83681 51.8286L9.93221 50.7434L11.0276 51.8286L11.1745 51.68L10.0791 50.5979L11.1745 49.5127L11.0276 49.3672Z" fill="white"/>
<path d="M11.0276 54.4111L9.93221 55.4933L8.83681 54.4111L8.68994 54.5566L9.78534 55.6418L8.68994 56.724L8.83681 56.8725L9.93221 55.7873L11.0276 56.8725L11.1745 56.724L10.0791 55.6418L11.1745 54.5566L11.0276 54.4111Z" fill="white"/>
<path d="M11.0276 59.4521L9.93221 60.5373L8.83681 59.4521L8.68994 59.6007L9.78534 60.6828L8.68994 61.768L8.83681 61.9135L9.93221 60.8314L11.0276 61.9135L11.1745 61.768L10.0791 60.6828L11.1745 59.6007L11.0276 59.4521Z" fill="white"/>
<path d="M11.0276 64.4961L9.93221 65.5813L8.83681 64.4961L8.68994 64.6446L9.78534 65.7268L8.68994 66.812L8.83681 66.9575L9.93221 65.8753L11.0276 66.9575L11.1745 66.812L10.0791 65.7268L11.1745 64.6446L11.0276 64.4961Z" fill="white"/>
<path d="M11.0276 69.54L9.93221 70.6252L8.83681 69.54L8.68994 69.6886L9.78534 70.7707L8.68994 71.8559L8.83681 72.0014L9.93221 70.9193L11.0276 72.0014L11.1745 71.8559L10.0791 70.7707L11.1745 69.6886L11.0276 69.54Z" fill="white"/>
<path d="M11.0276 74.584L9.93221 75.6692L8.83681 74.584L8.68994 74.7295L9.78534 75.8147L8.68994 76.8999L8.83681 77.0454L9.93221 75.9602L11.0276 77.0454L11.1745 76.8999L10.0791 75.8147L11.1745 74.7295L11.0276 74.584Z" fill="white"/>
<path d="M11.0276 82.0893L11.1745 81.9438L10.0791 80.8586L11.1745 79.7765L11.0276 79.6279L9.93221 80.7131L8.83681 79.6279L8.68994 79.7765L9.78534 80.8586L8.92248 81.7134C8.96226 81.771 8.99898 81.8317 9.03876 81.8923L9.93221 81.0072L11.0276 82.0893Z" fill="white"/>
<path d="M5.93602 31.6528L6.08289 31.5073L4.98749 30.4221L6.08289 29.3399L5.93602 29.1914L5.01809 30.1008C4.93548 30.2766 4.85592 30.4554 4.77637 30.6343L4.8498 30.5615L5.93602 31.6528Z" fill="white"/>
<path d="M5.93582 34.2354L4.84042 35.3205L3.74501 34.2354L3.59814 34.3809L4.69355 35.466L3.59814 36.5512L3.74501 36.6967L4.84042 35.6115L5.93582 36.6967L6.08269 36.5512L4.98729 35.466L6.08269 34.3809L5.93582 34.2354Z" fill="white"/>
<path d="M5.93582 39.2793L4.84042 40.3645L3.74501 39.2793L3.59814 39.4248L4.69355 40.51L3.59814 41.5952L3.74501 41.7407L4.84042 40.6555L5.93582 41.7407L6.08269 41.5952L4.98729 40.51L6.08269 39.4248L5.93582 39.2793Z" fill="white"/>
<path d="M5.93582 44.3232L4.84042 45.4054L3.74501 44.3232L3.59814 44.4687L4.69355 45.5539L3.59814 46.6361L3.74501 46.7846L4.84042 45.6994L5.93582 46.7846L6.08269 46.6361L4.98729 45.5539L6.08269 44.4687L5.93582 44.3232Z" fill="white"/>
<path d="M5.93582 49.3672L4.84042 50.4493L3.74501 49.3672L3.59814 49.5127L4.69355 50.5979L3.59814 51.68L3.74501 51.8286L4.84042 50.7434L5.93582 51.8286L6.08269 51.68L4.98729 50.5979L6.08269 49.5127L5.93582 49.3672Z" fill="white"/>
<path d="M5.93582 54.4111L4.84042 55.4933L3.74501 54.4111L3.59814 54.5566L4.69355 55.6418L3.59814 56.724L3.74501 56.8725L4.84042 55.7873L5.93582 56.8725L6.08269 56.724L4.98729 55.6418L6.08269 54.5566L5.93582 54.4111Z" fill="white"/>
<path d="M5.93582 59.4521L4.84042 60.5373L3.74501 59.4521L3.59814 59.6007L4.69355 60.6828L3.59814 61.768L3.74501 61.9135L4.84042 60.8314L5.93582 61.9135L6.08269 61.768L4.98729 60.6828L6.08269 59.6007L5.93582 59.4521Z" fill="white"/>
<path d="M5.93582 64.4961L4.84042 65.5813L3.74501 64.4961L3.59814 64.6446L4.69355 65.7268L3.59814 66.812L3.74501 66.9575L4.84042 65.8753L5.93582 66.9575L6.08269 66.812L4.98729 65.7268L6.08269 64.6446L5.93582 64.4961Z" fill="white"/>
<path d="M3.75419 71.9953L4.84042 70.9192L5.93582 72.0044L6.08269 71.8558L4.98729 70.7737L6.08269 69.6885L5.93582 69.543L4.84042 70.6251L3.74502 69.543L3.59814 69.6885L4.69355 70.7737L3.66852 71.7861C3.69912 71.8558 3.72666 71.9255 3.75419 71.9953Z" fill="white"/>
<path d="M5.93602 74.584L5.21094 75.3023C5.24153 75.369 5.27825 75.4326 5.3119 75.4963L6.08288 74.7325L5.93602 74.584Z" fill="white"/>
<path d="M5.98779 76.8027L6.05106 76.9293L6.08119 76.8992L5.98779 76.8027Z" fill="white"/>
<path d="M0.991431 44.4687L0.844578 44.3232L0.556992 44.6081C0.556992 44.7173 0.529457 44.8324 0.51416 44.9415L0.991431 44.4687Z" fill="white"/>
<path d="M0.376427 46.0264C0.376427 46.1143 0.351952 46.1991 0.342773 46.287L0.844519 46.7841L0.991373 46.6386L0.376427 46.0264Z" fill="white"/>
<path d="M0.00585938 50.707C0.00585938 50.801 0.00585938 50.898 0.00585938 50.9919L0.850261 51.8285L0.997113 51.683L0.00585938 50.707Z" fill="white"/>
<path d="M0.843982 49.3672L0.0209961 50.1825C0.0209961 50.2825 0.0209961 50.3825 0.0209961 50.4856L1.00001 49.5157L0.843982 49.3672Z" fill="white"/>
<path d="M0.844439 54.4111L0.0336914 55.2143C0.0336914 55.3053 0.0336907 55.3962 0.0520472 55.4871L0.991293 54.5566L0.844439 54.4111Z" fill="white"/>
<path d="M0.0795898 55.8203C0.0795898 55.9264 0.0795904 56.0325 0.104066 56.1386L0.844447 56.8781L0.9913 56.7296L0.0795898 55.8203Z" fill="white"/>
<path d="M0.844281 59.4551L0.486328 59.8097C0.486328 59.8946 0.504685 59.9825 0.519982 60.0704L0.991134 59.6066L0.844281 59.4551Z" fill="white"/>
<path d="M0.991176 61.7683L0.761719 61.541L0.825966 61.8987L0.844322 61.9168L0.991176 61.7683Z" fill="white"/>
</g>
<defs>
<clipPath id="clip0_523_1096">
<rect width="106" height="105" fill="white"/>
</clipPath>
</defs>
</svg>
