<svg width="106" height="104" viewBox="0 0 106 104" fill="none" xmlns="http://www.w3.org/2000/svg">
<g clip-path="url(#clip0_523_1473)">
<path d="M48.2198 90.4672C68.0708 90.9219 77.3572 66.7569 61.0252 54.7946C56.3116 51.3446 50.8448 58.5528 55.5546 61.9878C64.198 68.3203 60.5002 81.7821 49.1823 81.5303C43.3731 81.395 42.3345 90.3394 48.2198 90.4747V90.4672Z" fill="#703EFF"/>
<path d="M49.1596 64.8094C38.6368 58.6648 39.8694 44.8235 51.5449 40.8962C57.0993 39.0171 53.4471 30.7942 47.9118 32.6282C30.1228 38.615 27.4217 62.4907 43.6928 71.9838C48.6917 74.9039 54.2004 67.7333 49.1596 64.7907V64.8094Z" fill="#703EFF"/>
<path d="M75.3333 51.8933C82.0289 46.5191 84.281 37.9542 81.5305 29.9606C79.6283 24.4736 71.3045 28.0815 73.18 33.5496C74.5952 37.6573 73.0469 42.1408 69.699 44.8242C65.1339 48.4809 70.7795 55.55 75.3333 51.8933Z" fill="#703EFF"/>
<path d="M83.1132 79.7149C83.0333 73.8296 86.5599 68.3464 92.605 66.9972C98.2848 65.7345 96.9457 56.8502 91.2088 58.1091C81.4925 60.2738 73.9181 68.6959 74.0551 78.7791C74.1349 84.4878 83.1854 85.525 83.1132 79.7299V79.7149Z" fill="#703EFF"/>
<path d="M102.351 51.0357C106.399 44.7407 107.194 37.262 104.159 30.3657C101.815 25.0517 93.4684 28.637 95.808 33.9548C97.4895 37.7731 97.3564 42.0762 95.0738 45.6427C91.9504 50.5058 99.2129 55.9363 102.359 51.047L102.351 51.0357Z" fill="#703EFF"/>
<path d="M90.0674 11.026C83.5772 5.152 75.7289 1.56294 67.0892 0.0747074C61.3219 -0.917451 60.3632 8.03076 66.1229 9.02292C73.218 10.2443 79.3125 13.435 84.5968 18.2229C88.9185 22.1352 94.3472 14.9045 90.0674 11.026Z" fill="#703EFF"/>
<path d="M61.7026 16.8439C58.876 12.5708 54.307 9.94012 49.2586 9.09077C46.8315 8.68489 44.4994 10.7782 44.2483 13.0857C43.9706 15.63 45.8613 17.6294 48.2923 18.0352C51.0466 18.4975 53.0553 20.1473 54.5466 22.4098C55.8896 24.4467 59.1308 24.5669 60.9379 23.1614C63.0189 21.5454 63.0455 18.8883 61.6988 16.8439H61.7026Z" fill="#703EFF"/>
<path d="M27.4028 39.9416C27.8783 37.4161 29.206 35.3642 30.9712 33.5264C32.6603 31.7638 31.869 28.5656 30.062 27.2277C27.9049 25.6305 25.3865 26.3558 23.6897 28.1259C20.7908 31.1325 19.1245 34.9282 18.3637 38.987C17.9148 41.3772 20.1023 43.6923 22.4077 43.9366C25.0136 44.2147 26.9729 42.3356 27.418 39.9416H27.4028Z" fill="#703EFF"/>
<path d="M26.9766 68.2296C24.519 66.9594 23.4956 63.6559 24.245 60.6494C24.8309 58.2855 22.4076 55.9329 20.1972 55.6999C17.4848 55.4105 15.7766 57.3272 15.1869 59.6948C13.475 66.5986 17.5266 73.4385 23.6402 76.6066C25.8238 77.7341 28.7113 76.1594 29.5445 74.0699C30.526 71.6045 29.164 69.3684 26.9766 68.2372V68.2296Z" fill="#703EFF"/>
<path d="M9.73534 57.9997C8.97037 56.1924 8.86283 54.1792 9.43099 52.3023C10.1919 49.9948 9.24838 47.3979 6.86307 46.4697C4.67558 45.6203 1.72723 46.6876 0.958753 49.0064C-0.454204 53.112 -0.302706 57.5857 1.38484 61.5888C3.64081 66.9442 11.9875 63.3514 9.75436 57.9997H9.73534Z" fill="#703EFF"/>
<path d="M71.3884 103.977C76.8096 103.481 81.215 100.031 83.6003 95.3335C84.7035 93.1613 83.178 90.3389 81.0324 89.5046C78.571 88.5463 76.2351 89.8579 75.128 92.0414C75.3449 91.6167 75.0824 92.1391 74.9835 92.2744C74.7519 92.6174 74.4977 92.9451 74.2226 93.2553C73.6976 93.834 74.603 92.9546 73.9905 93.4695C73.6776 93.7408 73.3472 93.9919 73.0014 94.2211C72.078 94.7333 71.0493 95.0326 69.9922 95.0968C67.5422 95.3223 65.8303 97.9379 66.1879 100.23C66.5873 102.756 68.9308 104.21 71.3884 103.989V103.977Z" fill="#703EFF"/>
<path d="M104.341 82.7703L105.232 80.5417C106.103 78.3507 104.992 75.4982 102.664 74.709C100.335 73.9198 97.6952 74.9007 96.7593 77.2458L95.8691 79.4669C94.9979 81.6541 96.1088 84.5103 98.437 85.2958C100.765 86.0813 103.405 85.1079 104.341 82.759V82.7703Z" fill="#703EFF"/>
<path d="M48.1438 93.7063L34.8287 91.2033C29.0765 90.1247 28.1292 99.0729 33.8624 100.148L47.1775 102.651C52.9297 103.729 53.8769 94.7811 48.1438 93.7063Z" fill="#703EFF"/>
<path d="M18.1392 20.8921C19.2269 18.5146 20.8223 16.3976 22.8159 14.6864C24.8095 12.9752 27.1542 11.7101 29.6891 10.978C35.2625 9.44845 33.9462 0.53782 28.293 2.08995C19.8664 4.40498 13.3343 9.70025 9.67076 17.5962C7.22458 22.8576 15.7044 26.1385 18.1392 20.8921Z" fill="#703EFF"/>
<path d="M21.1025 82.9388L16.583 81.18C14.3688 80.3194 11.4775 81.4167 10.6824 83.7167C9.88734 86.0168 10.8765 88.6249 13.2504 89.5494L17.7661 91.3083C19.984 92.1689 22.8715 91.0715 23.6704 88.7715C24.4693 86.4715 23.4764 83.8633 21.1025 82.9388Z" fill="#703EFF"/>
</g>
<defs>
<clipPath id="clip0_523_1473">
<rect width="106" height="104" fill="white"/>
</clipPath>
</defs>
</svg>
