<svg width="334" height="229" viewBox="0 0 334 229" fill="none" xmlns="http://www.w3.org/2000/svg">
<g filter="url(#filter0_d_623_322)">
<path d="M151.871 6.58413C158.143 4.82165 164.781 4.82165 171.053 6.58413C177.486 8.39669 187.401 9.4278 202.017 7.11637C231.514 2.44363 282.01 -11.2585 303.142 19.3721C314.274 35.5521 308.041 67.8288 318.873 87.8335C321.54 92.8055 322.935 98.3576 322.935 103.997C322.935 109.636 321.54 115.188 318.873 120.16C308.041 140.115 314.274 172.442 303.142 188.622C282.077 219.269 231.481 205.55 202.017 200.877C187.401 198.566 177.486 199.597 171.053 201.41C164.781 203.172 158.143 203.172 151.871 201.41C145.455 199.597 135.539 198.566 120.907 200.877C91.41 205.55 40.9145 219.269 19.783 188.622C8.66732 172.442 14.8998 140.165 4.05075 120.16C1.3912 115.186 0 109.635 0 103.997C0 98.3589 1.3912 92.8078 4.05075 87.8335C14.8998 67.8787 8.66732 35.5521 19.783 19.3721C40.8478 -11.2585 91.4433 2.44363 120.907 7.11637C135.539 9.4278 145.455 8.36343 151.871 6.58413Z" fill="white"/>
<path d="M152.753 9.71994L152.742 9.72296C145.804 11.647 135.409 12.7049 120.399 10.3337L120.397 10.3334C116.79 9.76139 112.925 9.06762 108.877 8.34089C96.0327 6.03524 81.3399 3.39776 67.1644 3.26262C48.5503 3.08517 32.0625 7.26479 22.4669 21.2178C20.0403 24.7505 18.4601 29.322 17.3523 34.7414C16.245 40.1582 15.6564 46.1636 15.0598 52.4929C15.0293 52.816 14.9989 53.1401 14.9683 53.465C13.8283 65.5963 12.5711 78.9737 6.91824 89.3786C4.51443 93.8783 3.25727 98.8985 3.25727 103.997C3.25727 109.096 4.51472 114.117 6.91908 118.617C12.5704 129.044 13.8279 142.418 14.9681 154.545C14.9987 154.871 15.0292 155.196 15.0598 155.519C15.6563 161.845 16.245 167.846 17.3522 173.259C18.4601 178.675 20.0404 183.244 22.4678 186.777C32.0979 200.739 48.5802 204.917 67.1765 204.737C81.3194 204.601 95.9737 201.969 108.805 199.665C112.878 198.934 116.767 198.235 120.398 197.66L120.399 197.66C135.398 195.291 145.8 196.31 152.755 198.274M152.753 9.71994L151.871 201.41M152.753 9.71994C158.448 8.11962 164.475 8.11941 170.17 9.71932C177.139 11.6832 187.541 12.7035 202.526 10.3337L202.526 10.3335C206.15 9.75943 210.032 9.0628 214.097 8.33328C226.933 6.02938 241.597 3.39761 255.747 3.26262C274.345 3.08521 290.829 7.26304 300.459 21.2195L152.753 9.71994ZM152.755 198.274C152.756 198.275 152.756 198.275 152.757 198.275L151.871 201.41M152.755 198.274C152.754 198.274 152.753 198.274 152.753 198.274L151.871 201.41M152.755 198.274C158.449 199.874 164.475 199.874 170.17 198.274M151.871 201.41C158.143 203.172 164.781 203.172 171.053 201.41M170.17 198.274L171.053 201.41M170.17 198.274C170.17 198.274 170.171 198.274 170.172 198.274L171.053 201.41M170.17 198.274C177.139 196.31 187.541 195.29 202.526 197.66L202.527 197.66C206.141 198.233 210.013 198.929 214.07 199.657C226.909 201.963 241.593 204.601 255.76 204.737C274.374 204.917 290.862 200.737 300.457 186.776L300.458 186.775C302.889 183.242 304.472 178.671 305.582 173.251C306.691 167.835 307.281 161.83 307.877 155.501C307.908 155.168 307.94 154.833 307.971 154.498C309.11 142.375 310.366 129.011 316.006 118.615C318.417 114.118 319.678 109.097 319.678 103.997C319.678 98.8958 318.416 93.8736 316.004 89.3753C316.004 89.3746 316.003 89.3738 316.003 89.373L318.873 87.8335C313.554 78.0091 312.35 65.225 311.183 52.8412C309.975 40.0087 308.807 27.6061 303.142 19.3721L171.053 201.41" stroke="#3B0F46" stroke-width="6.51454"/>
</g>
<path d="M59.7102 89L46.392 42.4545H57.142L64.8466 74.7955H65.233L73.733 42.4545H82.9375L91.4148 74.8636H91.8239L99.5284 42.4545H110.278L96.9602 89H87.3693L78.5057 58.5682H78.142L69.3011 89H59.7102ZM121.568 89.6591C119.341 89.6591 117.356 89.2727 115.614 88.5C113.871 87.7121 112.492 86.553 111.477 85.0227C110.477 83.4773 109.977 81.553 109.977 79.25C109.977 77.3106 110.333 75.6818 111.045 74.3636C111.758 73.0455 112.727 71.9848 113.955 71.1818C115.182 70.3788 116.576 69.7727 118.136 69.3636C119.712 68.9545 121.364 68.6667 123.091 68.5C125.121 68.2879 126.758 68.0909 128 67.9091C129.242 67.7121 130.144 67.4242 130.705 67.0455C131.265 66.6667 131.545 66.1061 131.545 65.3636V65.2273C131.545 63.7879 131.091 62.6742 130.182 61.8864C129.288 61.0985 128.015 60.7045 126.364 60.7045C124.621 60.7045 123.235 61.0909 122.205 61.8636C121.174 62.6212 120.492 63.5758 120.159 64.7273L111.205 64C111.659 61.8788 112.553 60.0455 113.886 58.5C115.22 56.9394 116.939 55.7424 119.045 54.9091C121.167 54.0606 123.621 53.6364 126.409 53.6364C128.348 53.6364 130.205 53.8636 131.977 54.3182C133.765 54.7727 135.348 55.4773 136.727 56.4318C138.121 57.3864 139.22 58.6136 140.023 60.1136C140.826 61.5985 141.227 63.3788 141.227 65.4545V89H132.045V84.1591H131.773C131.212 85.25 130.462 86.2121 129.523 87.0455C128.583 87.8636 127.455 88.5076 126.136 88.9773C124.818 89.4318 123.295 89.6591 121.568 89.6591ZM124.341 82.9773C125.765 82.9773 127.023 82.697 128.114 82.1364C129.205 81.5606 130.061 80.7879 130.682 79.8182C131.303 78.8485 131.614 77.75 131.614 76.5227V72.8182C131.311 73.0152 130.894 73.197 130.364 73.3636C129.848 73.5152 129.265 73.6591 128.614 73.7955C127.962 73.9167 127.311 74.0303 126.659 74.1364C126.008 74.2273 125.417 74.3106 124.886 74.3864C123.75 74.553 122.758 74.8182 121.909 75.1818C121.061 75.5455 120.402 76.0379 119.932 76.6591C119.462 77.2652 119.227 78.0227 119.227 78.9318C119.227 80.25 119.705 81.2576 120.659 81.9545C121.629 82.6364 122.856 82.9773 124.341 82.9773ZM148.739 89V54.0909H157.966V60.25H158.375C159.102 58.2045 160.314 56.5909 162.011 55.4091C163.708 54.2273 165.739 53.6364 168.102 53.6364C170.496 53.6364 172.534 54.2348 174.216 55.4318C175.898 56.6136 177.019 58.2197 177.58 60.25H177.943C178.655 58.25 179.943 56.6515 181.807 55.4545C183.686 54.2424 185.905 53.6364 188.466 53.6364C191.723 53.6364 194.367 54.6742 196.398 56.75C198.443 58.8106 199.466 61.7348 199.466 65.5227V89H189.807V67.4318C189.807 65.4924 189.292 64.0379 188.261 63.0682C187.231 62.0985 185.943 61.6136 184.398 61.6136C182.64 61.6136 181.269 62.1742 180.284 63.2955C179.299 64.4015 178.807 65.8636 178.807 67.6818V89H169.42V67.2273C169.42 65.5152 168.928 64.1515 167.943 63.1364C166.973 62.1212 165.693 61.6136 164.102 61.6136C163.027 61.6136 162.057 61.8864 161.193 62.4318C160.345 62.9621 159.67 63.7121 159.17 64.6818C158.67 65.6364 158.42 66.7576 158.42 68.0455V89H148.739ZM207.295 89V42.4545H216.977V59.9545H217.273C217.697 59.0152 218.311 58.0606 219.114 57.0909C219.932 56.1061 220.992 55.2879 222.295 54.6364C223.614 53.9697 225.25 53.6364 227.205 53.6364C229.75 53.6364 232.098 54.303 234.25 55.6364C236.402 56.9545 238.121 58.947 239.409 61.6136C240.697 64.2652 241.341 67.5909 241.341 71.5909C241.341 75.4848 240.712 78.7727 239.455 81.4545C238.212 84.1212 236.515 86.1439 234.364 87.5227C232.227 88.8864 229.833 89.5682 227.182 89.5682C225.303 89.5682 223.705 89.2576 222.386 88.6364C221.083 88.0152 220.015 87.2348 219.182 86.2955C218.348 85.3409 217.712 84.3788 217.273 83.4091H216.841V89H207.295ZM216.773 71.5455C216.773 73.6212 217.061 75.4318 217.636 76.9773C218.212 78.5227 219.045 79.7273 220.136 80.5909C221.227 81.4394 222.553 81.8636 224.114 81.8636C225.689 81.8636 227.023 81.4318 228.114 80.5682C229.205 79.6894 230.03 78.4773 230.591 76.9318C231.167 75.3712 231.455 73.5758 231.455 71.5455C231.455 69.5303 231.174 67.7576 230.614 66.2273C230.053 64.697 229.227 63.5 228.136 62.6364C227.045 61.7727 225.705 61.3409 224.114 61.3409C222.538 61.3409 221.205 61.7576 220.114 62.5909C219.038 63.4242 218.212 64.6061 217.636 66.1364C217.061 67.6667 216.773 69.4697 216.773 71.5455ZM263.71 89.6818C260.119 89.6818 257.028 88.9545 254.438 87.5C251.862 86.0303 249.877 83.9545 248.483 81.2727C247.089 78.5758 246.392 75.3864 246.392 71.7045C246.392 68.1136 247.089 64.9621 248.483 62.25C249.877 59.5379 251.839 57.4242 254.369 55.9091C256.915 54.3939 259.9 53.6364 263.324 53.6364C265.627 53.6364 267.771 54.0076 269.756 54.75C271.756 55.4773 273.498 56.5758 274.983 58.0455C276.483 59.5152 277.65 61.3636 278.483 63.5909C279.316 65.803 279.733 68.3939 279.733 71.3636V74.0227H250.256V68.0227H270.619C270.619 66.6288 270.316 65.3939 269.71 64.3182C269.104 63.2424 268.263 62.4015 267.188 61.7955C266.127 61.1742 264.892 60.8636 263.483 60.8636C262.013 60.8636 260.71 61.2045 259.574 61.8864C258.453 62.553 257.574 63.4545 256.938 64.5909C256.301 65.7121 255.975 66.9621 255.96 68.3409V74.0455C255.96 75.7727 256.278 77.2652 256.915 78.5227C257.566 79.7803 258.483 80.75 259.665 81.4318C260.847 82.1136 262.248 82.4545 263.869 82.4545C264.945 82.4545 265.93 82.303 266.824 82C267.718 81.697 268.483 81.2424 269.119 80.6364C269.756 80.0303 270.241 79.2879 270.574 78.4091L279.528 79C279.074 81.1515 278.142 83.0303 276.733 84.6364C275.339 86.2273 273.536 87.4697 271.324 88.3636C269.127 89.2424 266.589 89.6818 263.71 89.6818ZM78.608 166V119.455H96.9716C100.487 119.455 103.487 120.083 105.972 121.341C108.472 122.583 110.373 124.348 111.676 126.636C112.994 128.909 113.653 131.583 113.653 134.659C113.653 137.75 112.987 140.409 111.653 142.636C110.32 144.848 108.388 146.545 105.858 147.727C103.343 148.909 100.297 149.5 96.7216 149.5H84.4261V141.591H95.1307C97.0095 141.591 98.5701 141.333 99.8125 140.818C101.055 140.303 101.979 139.53 102.585 138.5C103.206 137.47 103.517 136.189 103.517 134.659C103.517 133.114 103.206 131.811 102.585 130.75C101.979 129.689 101.047 128.886 99.7898 128.341C98.5473 127.78 96.9792 127.5 95.0852 127.5H88.4489V166H78.608ZM103.744 144.818L115.312 166H104.449L93.1307 144.818H103.744ZM135.773 166.682C132.182 166.682 129.091 165.955 126.5 164.5C123.924 163.03 121.939 160.955 120.545 158.273C119.152 155.576 118.455 152.386 118.455 148.705C118.455 145.114 119.152 141.962 120.545 139.25C121.939 136.538 123.902 134.424 126.432 132.909C128.977 131.394 131.962 130.636 135.386 130.636C137.689 130.636 139.833 131.008 141.818 131.75C143.818 132.477 145.561 133.576 147.045 135.045C148.545 136.515 149.712 138.364 150.545 140.591C151.379 142.803 151.795 145.394 151.795 148.364V151.023H122.318V145.023H142.682C142.682 143.629 142.379 142.394 141.773 141.318C141.167 140.242 140.326 139.402 139.25 138.795C138.189 138.174 136.955 137.864 135.545 137.864C134.076 137.864 132.773 138.205 131.636 138.886C130.515 139.553 129.636 140.455 129 141.591C128.364 142.712 128.038 143.962 128.023 145.341V151.045C128.023 152.773 128.341 154.265 128.977 155.523C129.629 156.78 130.545 157.75 131.727 158.432C132.909 159.114 134.311 159.455 135.932 159.455C137.008 159.455 137.992 159.303 138.886 159C139.78 158.697 140.545 158.242 141.182 157.636C141.818 157.03 142.303 156.288 142.636 155.409L151.591 156C151.136 158.152 150.205 160.03 148.795 161.636C147.402 163.227 145.598 164.47 143.386 165.364C141.189 166.242 138.652 166.682 135.773 166.682ZM173.886 166.682C170.311 166.682 167.235 165.924 164.659 164.409C162.098 162.879 160.129 160.758 158.75 158.045C157.386 155.333 156.705 152.212 156.705 148.682C156.705 145.106 157.394 141.97 158.773 139.273C160.167 136.561 162.144 134.447 164.705 132.932C167.265 131.402 170.311 130.636 173.841 130.636C176.886 130.636 179.553 131.189 181.841 132.295C184.129 133.402 185.939 134.955 187.273 136.955C188.606 138.955 189.341 141.303 189.477 144H180.341C180.083 142.258 179.402 140.856 178.295 139.795C177.205 138.72 175.773 138.182 174 138.182C172.5 138.182 171.189 138.591 170.068 139.409C168.962 140.212 168.098 141.386 167.477 142.932C166.856 144.477 166.545 146.348 166.545 148.545C166.545 150.773 166.848 152.667 167.455 154.227C168.076 155.788 168.947 156.977 170.068 157.795C171.189 158.614 172.5 159.023 174 159.023C175.106 159.023 176.098 158.795 176.977 158.341C177.871 157.886 178.606 157.227 179.182 156.364C179.773 155.485 180.159 154.432 180.341 153.205H189.477C189.326 155.871 188.598 158.22 187.295 160.25C186.008 162.265 184.227 163.841 181.955 164.977C179.682 166.114 176.992 166.682 173.886 166.682ZM205.631 166.659C203.403 166.659 201.419 166.273 199.676 165.5C197.934 164.712 196.555 163.553 195.54 162.023C194.54 160.477 194.04 158.553 194.04 156.25C194.04 154.311 194.396 152.682 195.108 151.364C195.82 150.045 196.79 148.985 198.017 148.182C199.244 147.379 200.638 146.773 202.199 146.364C203.775 145.955 205.426 145.667 207.153 145.5C209.184 145.288 210.82 145.091 212.062 144.909C213.305 144.712 214.206 144.424 214.767 144.045C215.328 143.667 215.608 143.106 215.608 142.364V142.227C215.608 140.788 215.153 139.674 214.244 138.886C213.35 138.098 212.078 137.705 210.426 137.705C208.684 137.705 207.297 138.091 206.267 138.864C205.237 139.621 204.555 140.576 204.222 141.727L195.267 141C195.722 138.879 196.616 137.045 197.949 135.5C199.282 133.939 201.002 132.742 203.108 131.909C205.229 131.061 207.684 130.636 210.472 130.636C212.411 130.636 214.267 130.864 216.04 131.318C217.828 131.773 219.411 132.477 220.79 133.432C222.184 134.386 223.282 135.614 224.085 137.114C224.888 138.598 225.29 140.379 225.29 142.455V166H216.108V161.159H215.835C215.275 162.25 214.525 163.212 213.585 164.045C212.646 164.864 211.517 165.508 210.199 165.977C208.881 166.432 207.358 166.659 205.631 166.659ZM208.403 159.977C209.828 159.977 211.085 159.697 212.176 159.136C213.267 158.561 214.123 157.788 214.744 156.818C215.366 155.848 215.676 154.75 215.676 153.523V149.818C215.373 150.015 214.956 150.197 214.426 150.364C213.911 150.515 213.328 150.659 212.676 150.795C212.025 150.917 211.373 151.03 210.722 151.136C210.07 151.227 209.479 151.311 208.949 151.386C207.813 151.553 206.82 151.818 205.972 152.182C205.123 152.545 204.464 153.038 203.994 153.659C203.525 154.265 203.29 155.023 203.29 155.932C203.29 157.25 203.767 158.258 204.722 158.955C205.691 159.636 206.919 159.977 208.403 159.977ZM232.801 179.091V131.091H242.347V136.955H242.778C243.203 136.015 243.816 135.061 244.619 134.091C245.438 133.106 246.498 132.288 247.801 131.636C249.119 130.97 250.756 130.636 252.71 130.636C255.256 130.636 257.604 131.303 259.756 132.636C261.907 133.955 263.627 135.947 264.915 138.614C266.203 141.265 266.847 144.591 266.847 148.591C266.847 152.485 266.218 155.773 264.96 158.455C263.718 161.121 262.021 163.144 259.869 164.523C257.733 165.886 255.339 166.568 252.688 166.568C250.809 166.568 249.21 166.258 247.892 165.636C246.589 165.015 245.521 164.235 244.688 163.295C243.854 162.341 243.218 161.379 242.778 160.409H242.483V179.091H232.801ZM242.278 148.545C242.278 150.621 242.566 152.432 243.142 153.977C243.718 155.523 244.551 156.727 245.642 157.591C246.733 158.439 248.059 158.864 249.619 158.864C251.195 158.864 252.528 158.432 253.619 157.568C254.71 156.689 255.536 155.477 256.097 153.932C256.672 152.371 256.96 150.576 256.96 148.545C256.96 146.53 256.68 144.758 256.119 143.227C255.559 141.697 254.733 140.5 253.642 139.636C252.551 138.773 251.21 138.341 249.619 138.341C248.044 138.341 246.71 138.758 245.619 139.591C244.544 140.424 243.718 141.606 243.142 143.136C242.566 144.667 242.278 146.47 242.278 148.545Z" fill="#703EFF"/>
<defs>
<filter id="filter0_d_623_322" x="0" y="0" width="333.172" height="228.94" filterUnits="userSpaceOnUse" color-interpolation-filters="sRGB">
<feFlood flood-opacity="0" result="BackgroundImageFix"/>
<feColorMatrix in="SourceAlpha" type="matrix" values="0 0 0 0 0 0 0 0 0 0 0 0 0 0 0 0 0 0 127 0" result="hardAlpha"/>
<feOffset dx="10.2371" dy="20.9396"/>
<feComposite in2="hardAlpha" operator="out"/>
<feColorMatrix type="matrix" values="0 0 0 0 0.231373 0 0 0 0 0.0588235 0 0 0 0 0.27451 0 0 0 1 0"/>
<feBlend mode="normal" in2="BackgroundImageFix" result="effect1_dropShadow_623_322"/>
<feBlend mode="normal" in="SourceGraphic" in2="effect1_dropShadow_623_322" result="shape"/>
</filter>
</defs>
</svg>
